<?xml version="1.0" encoding="UTF-8"?>
<svg version="1.1" xmlns="http://www.w3.org/2000/svg" width="500" height="500">
<path d="M0 0 C3.3125 0.6875 3.3125 0.6875 4.68261719 2.47851562 C5.13282227 3.27966797 5.58302734 4.08082031 6.046875 4.90625 C6.56725342 5.81737549 7.08763184 6.72850098 7.6237793 7.66723633 C8.18105713 8.66392334 8.73833496 9.66061035 9.3125 10.6875 C10.52130429 12.78563531 11.7309762 14.88327093 12.94140625 16.98046875 C14.25386655 19.27793848 15.56511415 21.57606503 16.875 23.875 C17.5728761 25.09800492 18.27079337 26.32098635 18.96875 27.54394531 C25.44995058 38.90629134 31.89027499 50.29172237 38.3125 61.6875 C43.68454262 53.19427061 48.66938496 44.54137008 53.51953125 35.7421875 C56.70985791 29.95573107 59.9440022 24.19428644 63.1875 18.4375 C63.73494873 17.46119629 64.28239746 16.48489258 64.84643555 15.47900391 C71.73561864 3.26438136 71.73561864 3.26438136 74.3125 0.6875 C76.8125 0.5625 76.8125 0.5625 79.3125 0.6875 C81.27467033 2.64967033 80.43944487 5.66154144 80.44802856 8.27386475 C80.44499222 9.69677826 80.44499222 9.69677826 80.44189453 11.1484375 C80.44452301 12.6385434 80.44452301 12.6385434 80.44720459 14.15875244 C80.45162511 17.46001912 80.44868441 20.76123273 80.4453125 24.0625 C80.44598548 26.34554047 80.44695546 28.62858087 80.44821167 30.91162109 C80.44968891 35.70345744 80.44753323 40.49527519 80.44287109 45.28710938 C80.4371738 51.44466635 80.44045266 57.60217974 80.44644356 63.75973511 C80.45004845 68.47615897 80.44891091 73.19257241 80.44631577 77.90899658 C80.4456463 80.1801148 80.4464756 82.45123394 80.44879532 84.72235107 C80.45132067 87.89044722 80.4474829 91.05847172 80.44189453 94.2265625 C80.44391876 95.17517151 80.44594299 96.12378052 80.44802856 97.10113525 C80.42676224 103.57323776 80.42676224 103.57323776 79.3125 104.6875 C76.76198526 104.78787731 74.23852821 104.82367487 71.6875 104.81689453 C70.88916748 104.81864685 70.09083496 104.82039917 69.26831055 104.82220459 C66.6163519 104.82662367 63.96445938 104.82368492 61.3125 104.8203125 C59.47786445 104.82098552 57.64322899 104.82195553 55.80859375 104.82321167 C51.95832472 104.82468872 48.10807884 104.82253386 44.2578125 104.81787109 C39.31093503 104.8121738 34.36411181 104.81545277 29.41723633 104.82144356 C25.62727445 104.82504898 21.83732554 104.82391067 18.04736328 104.82131577 C16.22281895 104.82064644 14.39827345 104.8214751 12.57373047 104.82379532 C10.02828839 104.82632154 7.48293541 104.8224817 4.9375 104.81689453 C4.17590576 104.81891876 3.41431152 104.82094299 2.62963867 104.82302856 C-2.57323742 104.80176258 -2.57323742 104.80176258 -3.6875 103.6875 C-3.78819779 100.52673656 -3.82364023 97.38777973 -3.81689453 94.2265625 C-3.81864685 93.23315857 -3.82039917 92.23975464 -3.82220459 91.21624756 C-3.82662511 87.91498088 -3.82368441 84.61376727 -3.8203125 81.3125 C-3.82098548 79.02945953 -3.82195546 76.74641913 -3.82321167 74.46337891 C-3.82468891 69.67154256 -3.82253323 64.87972481 -3.81787109 60.08789062 C-3.8121738 53.93033365 -3.81545266 47.77282026 -3.82144356 41.61526489 C-3.82504845 36.89884103 -3.82391091 32.18242759 -3.82131577 27.46600342 C-3.8206463 25.1948852 -3.8214756 22.92376606 -3.82379532 20.65264893 C-3.82632067 17.48455278 -3.8224829 14.31652828 -3.81689453 11.1484375 C-3.81891876 10.19982849 -3.82094299 9.25121948 -3.82302856 8.27386475 C-3.79903526 0.97184623 -3.79903526 0.97184623 0 0 Z M3.3125 15.6875 C3.3125 42.7475 3.3125 69.8075 3.3125 97.6875 C26.0825 97.6875 48.8525 97.6875 72.3125 97.6875 C73.82632165 94.6598567 73.44234253 91.52848447 73.42602539 88.20849609 C73.42617142 87.43767197 73.42631744 86.66684784 73.4264679 85.87266541 C73.42576989 83.31872771 73.41798275 80.76486249 73.41015625 78.2109375 C73.40829167 76.44259684 73.40686796 74.67425567 73.40586853 72.90591431 C73.4020465 68.24685241 73.39221888 63.58782158 73.38116455 58.92877197 C73.37094369 54.17647726 73.36636946 49.42417753 73.36132812 44.671875 C73.35059634 35.34373633 73.33352367 26.01562075 73.3125 16.6875 C70.6046045 19.2798711 68.96465827 21.84519856 67.16015625 25.1484375 C66.55389404 26.25058594 65.94763184 27.35273438 65.32299805 28.48828125 C65.00503265 29.07174316 64.68706726 29.65520508 64.35946655 30.25634766 C62.69534742 33.30942515 61.01438412 36.35322096 59.3359375 39.3984375 C58.82944923 40.31903961 58.82944923 40.31903961 58.31272888 41.25823975 C55.0959439 47.09893538 51.8118241 52.90017623 48.5 58.6875 C48.00314697 59.55810059 47.50629395 60.42870117 46.99438477 61.32568359 C45.1698121 64.51042723 43.34953291 67.63195064 41.3125 70.6875 C38.1875 70.875 38.1875 70.875 35.3125 70.6875 C34.90636475 69.94516113 34.50022949 69.20282227 34.08178711 68.43798828 C24.37845397 50.72311547 14.48497215 33.13771256 4.3125 15.6875 C3.9825 15.6875 3.6525 15.6875 3.3125 15.6875 Z " fill="#F8FEFE" transform="translate(14.6875,203.3125)"/>
<path d="M0 0 C3.375 1.0625 3.375 1.0625 5.375 2.625 C8.09607477 9.25761976 4.09503561 17.0840215 1.61328125 23.296875 C1.23084259 24.27577194 0.84840393 25.25466888 0.45437622 26.26322937 C-0.79275034 29.44972893 -2.05257876 32.63104037 -3.3125 35.8125 C-4.18116883 38.02576545 -5.04891824 40.23939196 -5.91577148 42.45336914 C-7.65850523 46.90116554 -9.40579719 51.3471246 -11.15722656 55.79150391 C-14.23915192 63.61580172 -17.28727397 71.45309335 -20.33016968 79.29263306 C-21.18340747 81.48946297 -22.038331 83.68562942 -22.89379883 85.8815918 C-25.86854628 93.52000195 -28.81750613 101.16740415 -31.73950195 108.82617188 C-35.08450353 117.58031894 -38.45796095 126.32342247 -42 135 C-42.3098584 135.78189697 -42.6197168 136.56379395 -42.93896484 137.36938477 C-44.55525915 141.25790555 -45.82182401 144.04543095 -49.625 146.0625 C-52.125 146.5 -52.125 146.5 -54.625 146.0625 C-56.84826224 144.33329603 -58.24991561 142.94101661 -59.3605957 140.33959961 C-59.75002605 136.98575207 -58.71261458 134.55601746 -57.60546875 131.37890625 C-57.37731979 130.72120743 -57.14917084 130.06350861 -56.91410828 129.38587952 C-54.4194322 122.29282084 -51.66067354 115.30184604 -48.86688232 108.3223877 C-47.56107658 105.05937406 -46.26525434 101.79242032 -44.96868896 98.52572632 C-44.27335731 96.77394894 -43.57759074 95.02234414 -42.88140869 93.27090454 C-39.10818366 83.77495847 -35.37450121 74.26361944 -31.64984131 64.74853516 C-30.50396565 61.82262599 -29.35579926 58.89762263 -28.20751953 55.97265625 C-24.66151906 46.92643498 -21.15690409 37.86863842 -17.76953125 28.76171875 C-17.17535942 27.17282671 -16.58112303 25.58395881 -15.98681641 23.99511719 C-14.89931801 21.08582728 -13.82989234 18.17077937 -12.77099609 15.25097656 C-12.28936519 13.95744821 -11.80714319 12.66413973 -11.32421875 11.37109375 C-10.92033936 10.26564209 -10.51645996 9.16019043 -10.1003418 8.02124023 C-7.70618351 3.21984949 -5.54436476 0.0955925 0 0 Z " fill="#264D88" transform="translate(223.625,184.9375)"/>
<path d="M0 0 C2.9375 1.80078125 2.9375 1.80078125 6 4.3125 C6.5576001 4.76181885 7.1152002 5.2111377 7.68969727 5.67407227 C8.87062753 6.62589383 10.04706839 7.58330905 11.21923828 8.54589844 C13.51938431 10.42410926 15.85677999 12.25190092 18.19750977 14.07910156 C19.95570483 15.45171239 21.70901753 16.83032865 23.4609375 18.2109375 C24.04456055 18.67081055 24.62818359 19.13068359 25.22949219 19.60449219 C26.40983073 20.53483073 27.59016927 21.46516927 28.77050781 22.39550781 C30.53403617 23.78510194 32.29821023 25.17387276 34.0625 26.5625 C34.63379639 27.01294678 35.20509277 27.46339355 35.79370117 27.92749023 C38.74287236 30.24752715 41.70687787 32.54443906 44.69921875 34.80859375 C45.29532959 35.26097412 45.89144043 35.71335449 46.50561523 36.17944336 C47.63873217 37.03725015 48.77481074 37.89116376 49.91430664 38.74047852 C53.45007563 41.41909139 55.74447691 43.32084827 56.4375 47.875 C55.55739512 54.1614634 48.44550444 58.22539965 43.6875 62.0625 C42.98818359 62.62904297 42.28886719 63.19558594 41.56835938 63.77929688 C36.1516938 68.13881554 30.61995245 72.32438297 25.02905273 76.45678711 C19.27905032 80.7294518 13.72765448 85.22471673 8.2265625 89.8125 C7.28683594 90.58980469 7.28683594 90.58980469 6.328125 91.3828125 C5.7805957 91.84059082 5.23306641 92.29836914 4.66894531 92.77001953 C1.45284482 95.14022349 -0.50217877 95.99126629 -4.5625 96.0625 C-8 95 -8 95 -10.0625 91.75 C-11.11485411 87.54058357 -11.05106305 86.68297152 -9 83 C-7.03179224 81.19873843 -5.13506488 79.63656267 -3 78.0625 C-1.7342459 77.09912793 -0.46862776 76.13557721 0.796875 75.171875 C1.81297852 74.40713867 1.81297852 74.40713867 2.84960938 73.62695312 C7.46131708 70.13780461 12.00755492 66.56300662 16.56591797 63.00463867 C19.81560747 60.46971194 23.06583909 57.94007556 26.3671875 55.47265625 C27.27726562 54.78042969 28.18734375 54.08820313 29.125 53.375 C29.89070313 52.80523437 30.65640625 52.23546875 31.4453125 51.6484375 C33.45741144 49.89265951 33.45741144 49.89265951 33 46 C30.92693658 43.73531593 30.92693658 43.73531593 28.0625 41.5625 C27.53470947 41.13783447 27.00691895 40.71316895 26.46313477 40.27563477 C21.12712856 36.01523296 15.67420802 31.89936845 10.23974609 27.76586914 C-7.12182045 14.55547002 -7.12182045 14.55547002 -11 9 C-11 5.47602562 -10.68152223 3.75724692 -8.3125 1.125 C-5.25129611 -0.36423433 -3.39082671 -0.35671333 0 0 Z " fill="#184986" transform="translate(235,210)"/>
<path d="M0 0 C2.875 1.625 2.875 1.625 5 4 C5.625 6.9375 5.625 6.9375 5 10 C-1.8811962 17.51789051 -10.29620868 23.74930607 -18.375 29.9375 C-18.90246826 30.34266846 -19.42993652 30.74783691 -19.97338867 31.1652832 C-22.94473671 33.44258722 -25.93242016 35.6957414 -28.93359375 37.93359375 C-30.22681415 38.91373055 -31.51978866 39.89419189 -32.8125 40.875 C-33.4297998 41.32738037 -34.04709961 41.77976074 -34.68310547 42.24584961 C-36.60575468 43.67072572 -36.60575468 43.67072572 -39 46 C-39.4311699 49.81686435 -39.4311699 49.81686435 -37.73754883 51.48876953 C-37.14997803 51.94880371 -36.56240723 52.40883789 -35.95703125 52.8828125 C-35.3019458 53.40512451 -34.64686035 53.92743652 -33.97192383 54.46557617 C-33.25931396 55.01318604 -32.5467041 55.5607959 -31.8125 56.125 C-31.08506592 56.69903564 -30.35763184 57.27307129 -29.6081543 57.86450195 C-27.41527465 59.58941384 -25.20964788 61.29664529 -23 63 C-21.8331455 63.90731058 -20.66646221 64.8148414 -19.5 65.72265625 C-15.75040332 68.62838143 -11.97781634 71.50366451 -8.19482422 74.36572266 C-6.96884464 75.29351715 -5.74396949 76.22277305 -4.52026367 77.15356445 C-3.36549784 78.03186173 -2.20821547 78.90686301 -1.0480957 79.77807617 C2.88732392 82.77464783 2.88732392 82.77464783 4 85 C4.35752493 88.8612692 4.52046997 91.16724804 2.4375 94.5 C0 96 0 96 -3.20703125 95.93359375 C-7.94763325 94.76675145 -10.49483254 92.70629925 -14.125 89.5625 C-15.45350925 88.4559284 -16.78295137 87.3504759 -18.11328125 86.24609375 C-18.77021973 85.69421387 -19.4271582 85.14233398 -20.10400391 84.57373047 C-22.78581069 82.34775487 -25.53978798 80.23704046 -28.3125 78.125 C-29.3540625 77.32707031 -30.395625 76.52914062 -31.46875 75.70703125 C-32.02304688 75.28244629 -32.57734375 74.85786133 -33.1484375 74.42041016 C-36.87684299 71.56019613 -40.59642035 68.68870379 -44.3125 65.8125 C-45.42395386 64.95712646 -45.42395386 64.95712646 -46.55786133 64.08447266 C-60.36659849 53.38196693 -60.36659849 53.38196693 -62.375 49 C-61.48999434 41.91995474 -54.76184876 37.87559551 -49.5 33.75 C-47.63094271 32.30697965 -45.75630782 30.87159826 -43.87890625 29.43945312 C-40.8967964 27.15482219 -37.94977602 24.82612098 -35 22.5 C-33.84130391 21.58964252 -32.68244913 20.67948697 -31.5234375 19.76953125 C-28.49390073 17.38942285 -25.46830178 15.00435153 -22.44335938 12.6184082 C-20.67662148 11.22812211 -18.90518723 9.84402639 -17.1328125 8.4609375 C-15.25671188 6.98719262 -13.39273494 5.49750271 -11.5546875 3.9765625 C-7.71003173 0.86282988 -5.16572951 -1.14793989 0 0 Z " fill="#2D5188" transform="translate(166,210)"/>
<path d="M0 0 C0 9.24 0 18.48 0 28 C3.96 28.33 7.92 28.66 12 29 C30.69047352 32.45367445 47.60524842 42.63192823 59 58 C60.98 61.3 62.96 64.6 65 68 C65.33 45.56 65.66 23.12 66 0 C71 -1 71 -1 73 0 C73.02312079 13.28187409 73.04091374 26.56374343 73.05181217 39.84563351 C73.05704158 46.0122492 73.06414027 52.17885118 73.07543945 58.34545898 C73.08626629 64.29116006 73.0922764 70.23684789 73.09487724 76.18255806 C73.09673186 78.45646943 73.10035317 80.73038004 73.10573006 83.00428581 C73.11293778 86.1772712 73.11399106 89.35020117 73.11352539 92.52319336 C73.11712067 93.47337341 73.12071594 94.42355347 73.12442017 95.40252686 C73.11405216 101.88594784 73.11405216 101.88594784 72 103 C69.5 103.125 69.5 103.125 67 103 C65.16904711 101.16904711 65.47663486 98.16000842 65.1875 95.6875 C62.76910456 78.37319065 55.30443965 62.55833841 42 51 C29.19260997 41.41038707 16.96053275 38.12807103 1 36 C0.67 57.78 0.34 79.56 0 102 C-5 103 -5 103 -7 102 C-7 68.34 -7 34.68 -7 0 C-5 -1 -5 -1 0 0 Z " fill="#F7FEFE" transform="translate(309,205)"/>
<path d="M0 0 C2.82632296 -0.06823939 4.41858726 -0.02504113 7 1 C9.75517211 3.73349101 11.73381265 6.92667712 13.81640625 10.1875 C14.74573219 11.58500488 14.74573219 11.58500488 15.6938324 13.01074219 C17.67089639 15.99400707 19.61683223 18.99618736 21.5625 22 C22.87493914 23.99221366 24.18937185 25.98311551 25.50585938 27.97265625 C27.93896512 31.65609442 30.36041619 35.34659183 32.76782227 39.046875 C35.81022801 43.72147907 38.89570723 48.36630992 42 53 C45.15515872 49.20663872 47.86222193 45.22205332 50.5 41.0625 C52.66067482 37.70445927 54.8301044 34.35208828 57 31 C57.38226746 30.40902527 57.76453491 29.81805054 58.15838623 29.20916748 C60.78513483 25.15203804 63.42669292 21.10501977 66.08251953 17.06686401 C66.98503644 15.69018017 67.88332723 14.31071641 68.77734375 12.92849731 C70.04776422 10.96581903 71.33261071 9.0133522 72.62109375 7.0625 C73.00305405 6.46533676 73.38501434 5.86817352 73.77854919 5.25291443 C75.34232722 2.91247932 76.48140127 1.23402185 79.08618164 0.05859375 C81 0 81 0 84 1 C83.44076914 4.67477004 82.51633015 7.15704966 80.44311523 10.23266602 C79.90843124 11.03442764 79.37374725 11.83618927 78.82286072 12.6622467 C78.24065262 13.51749435 77.65844452 14.372742 77.05859375 15.25390625 C76.45749283 16.15060532 75.85639191 17.04730438 75.23707581 17.97117615 C73.31141822 20.84010192 71.37470926 23.701365 69.4375 26.5625 C68.16006232 28.46108751 66.88336169 30.36017116 65.60742188 32.25976562 C64.9863002 33.18226608 64.36517853 34.10476654 63.72523499 35.05522156 C62.49138093 36.8926754 61.2625427 38.73350754 60.0388031 40.57771301 C55.13928272 47.93156753 55.13928272 47.93156753 52.34594727 51.23510742 C44.87980038 60.50265267 45.91580669 70.83792281 46.0625 82.1875 C46.06322072 85.16383947 46.05303825 88.13997674 46.04063416 91.11628723 C46.03703511 92.95702446 46.04337282 94.79781303 46.06056213 96.63847351 C46.07571997 98.75902426 46.04293034 100.87982967 46 103 C45 104 45 104 42.5 104.125 C40 104 40 104 39 103 C38.92619792 100.01598687 38.91194052 97.05023158 38.9296875 94.06640625 C38.92109358 92.20116259 38.91061406 90.33592684 38.8984375 88.47070312 C38.88182613 85.52780363 38.87478988 82.58665412 38.90039062 79.64379883 C38.92154237 76.80441772 38.8979444 73.96814297 38.8671875 71.12890625 C38.88457977 70.26495743 38.90197205 69.40100861 38.91989136 68.51087952 C38.77319247 60.96242697 35.52036732 56.81555682 31 51 C29.84162937 49.30236433 28.69990121 47.5932552 27.57495117 45.87329102 C26.71452461 44.56757896 26.71452461 44.56757896 25.8367157 43.23548889 C25.24477921 42.33406662 24.65284271 41.43264435 24.04296875 40.50390625 C23.41393143 39.54854477 22.7848941 38.59318329 22.13679504 37.60887146 C20.1523371 34.59430638 18.16987109 31.57843769 16.1875 28.5625 C14.83932782 26.51358296 13.4910217 24.46475406 12.14257812 22.41601562 C9.19191491 17.93279658 6.24254558 13.44872939 3.2943573 8.96388245 C2.20152119 7.30576095 1.10155941 5.65233911 0 4 C0 2.68 0 1.36 0 0 Z " fill="#F5FDFD" transform="translate(408,204)"/>
<path d="M0 0 C2.0625 0.4375 2.0625 0.4375 4 1 C3.35313856 6.51143811 1.5263784 11.29497332 -0.47265625 16.42578125 C-0.82715851 17.34876511 -1.18166077 18.27174896 -1.54690552 19.22270203 C-2.7132219 22.25480582 -3.88774727 25.28365588 -5.0625 28.3125 C-5.88167784 30.43669029 -6.70043888 32.56104135 -7.51879883 34.68554688 C-13.34739502 49.79998593 -19.21751347 64.89888478 -25.1418457 79.97607422 C-28.55754423 88.67773231 -31.91385127 97.39763721 -35.19140625 106.15234375 C-36.21495805 108.87093942 -37.23941951 111.58919079 -38.2640686 114.30737305 C-38.91605352 116.04664528 -39.56293413 117.78784035 -40.20443726 119.53100586 C-41.08750602 121.9304409 -41.98725462 124.32299328 -42.890625 126.71484375 C-43.27553856 127.78350929 -43.27553856 127.78350929 -43.66822815 128.87376404 C-44.76763645 131.74347425 -45.55480756 133.67345901 -48.06933594 135.51782227 C-50 136 -50 136 -52 135 C-51.37919782 130.0818884 -49.9022025 125.74154864 -48.0703125 121.16796875 C-47.76849564 120.40026154 -47.46667877 119.63255432 -47.15571594 118.84158325 C-46.1506939 116.28813135 -45.1377195 113.73790767 -44.125 111.1875 C-43.03713926 108.42850172 -41.95143608 105.66866012 -40.86576843 102.90879822 C-40.10058419 100.96408477 -39.33471062 99.01964242 -38.56819153 97.07545471 C-34.54761609 86.87280197 -30.59240792 76.64511592 -26.63806152 66.41665649 C-20.58642173 50.76961419 -14.51153252 35.13165806 -8.36697388 19.52084351 C-7.70992248 17.85111833 -7.05372207 16.18105802 -6.39840698 14.51065063 C-5.50527379 12.23519602 -4.60870349 9.96113002 -3.7109375 7.6875 C-3.31708107 6.68199348 -3.31708107 6.68199348 -2.91526794 5.65617371 C-1.11476597 1.11476597 -1.11476597 1.11476597 0 0 Z " fill="#EEF5FA" transform="translate(221,190)"/>
<path d="M0 0 C4.71629468 0.5019176 7.27529033 2.44707953 10.9375 5.375 C11.49961182 5.81980713 12.06172363 6.26461426 12.64086914 6.72290039 C13.83117805 7.66563295 15.0185431 8.61209292 16.203125 9.56201172 C18.52210367 11.41782481 20.86114034 13.24731069 23.20043945 15.07739258 C24.95263975 16.44935433 26.70141123 17.82557256 28.44921875 19.203125 C30.84538377 21.091454 33.24382598 22.97682142 35.64453125 24.859375 C42.45880002 30.20368376 49.25121657 35.57298291 56 41 C55.76556119 44.58628018 55.22082463 45.79361525 52.55078125 48.2890625 C51.48214844 49.05992187 50.41351563 49.83078125 49.3125 50.625 C48.11776862 51.5042295 46.92378262 52.38447257 45.73046875 53.265625 C45.11220215 53.71615234 44.49393555 54.16667969 43.85693359 54.63085938 C40.89538281 56.81444823 38.01113153 59.09319075 35.125 61.375 C34.55088379 61.82665527 33.97676758 62.27831055 33.38525391 62.74365234 C29.62037204 65.70824933 25.87302002 68.69429215 22.13378906 71.69116211 C20.84943642 72.71983642 19.56365662 73.74673171 18.27636719 74.77172852 C15.56423846 76.93248648 12.87602129 79.10509338 10.23046875 81.34765625 C9.45316406 81.99605469 8.67585937 82.64445312 7.875 83.3125 C6.91207031 84.14201172 6.91207031 84.14201172 5.9296875 84.98828125 C3.3080906 86.36276221 1.76929265 85.819289 -1 85 C0.54581519 81.05457636 2.99608061 79.07804688 6.25 76.4375 C7.04301514 75.79059204 7.04301514 75.79059204 7.85205078 75.13061523 C13.57076211 70.48698154 19.37334673 65.94693081 25.18261719 61.41748047 C28.29252018 58.99188982 31.39659186 56.55889116 34.5 54.125 C35.34473877 53.46479858 35.34473877 53.46479858 36.20654297 52.79125977 C38.95004934 50.64055696 41.63979109 48.45498776 44.28125 46.1796875 C47 44 47 44 49 44 C49 43.34 49 42.68 49 42 C48.47019531 41.77054687 47.94039063 41.54109375 47.39453125 41.3046875 C44.22350607 39.57691848 41.49625726 37.37444104 38.6875 35.125 C38.07720947 34.6410376 37.46691895 34.1570752 36.83813477 33.65844727 C31.73064251 29.60251667 26.64858996 25.5144812 21.56201172 21.43237305 C14.14270327 15.49091011 6.61506904 9.68858379 -1 4 C-0.67 2.68 -0.34 1.36 0 0 Z " fill="#EEF5FA" transform="translate(230,215)"/>
<path d="M0 0 C0.721875 0.2475 1.44375 0.495 2.1875 0.75 C1.96482585 4.05939854 1.03265747 4.88987971 -1.48046875 7.16015625 C-2.64605426 8.0542555 -3.81982757 8.93774513 -5 9.8125 C-6.28014672 10.78880188 -7.56008885 11.76537207 -8.83984375 12.7421875 C-9.49839355 13.23944336 -10.15694336 13.73669922 -10.83544922 14.24902344 C-13.94126655 16.60695934 -17.00088183 19.02263703 -20.0625 21.4375 C-20.64563965 21.89552002 -21.2287793 22.35354004 -21.82958984 22.82543945 C-26.06760072 26.15445026 -30.27768351 29.51724514 -34.48046875 32.890625 C-38.22966942 35.87993743 -42.01870771 38.81760016 -45.8125 41.75 C-44.47481239 44.84056238 -43.16697664 46.53833593 -40.4609375 48.52734375 C-39.78256836 49.03418701 -39.10419922 49.54103027 -38.40527344 50.06323242 C-37.6734082 50.59924072 -36.94154297 51.13524902 -36.1875 51.6875 C-34.63643528 52.84684006 -33.08699463 54.00835565 -31.5390625 55.171875 C-30.75047852 55.76419922 -29.96189453 56.35652344 -29.14941406 56.96679688 C-25.55425741 59.71011323 -22.05632394 62.5669311 -18.5625 65.4375 C-11.75327345 71.02002105 -4.82733684 76.42881383 2.1875 81.75 C1.6925 83.73 1.6925 83.73 1.1875 85.75 C-4.24029054 85.40554406 -7.35989307 82.18783453 -11.3125 78.8125 C-12.74624712 77.61711047 -14.18115747 76.42311483 -15.6171875 75.23046875 C-16.32713867 74.6379834 -17.03708984 74.04549805 -17.76855469 73.43505859 C-21.62344642 70.25702912 -25.60994495 67.25620348 -29.58203125 64.2265625 C-33.1251958 61.52087321 -36.62512334 58.76131486 -40.125 56 C-44.97055182 52.1795711 -49.85191532 48.42083266 -54.8125 44.75 C-54.7772931 42.01392118 -54.35098237 40.28977992 -52.39404297 38.328125 C-50.38649716 36.73875114 -48.33511049 35.23621992 -46.25 33.75 C-44.6897336 32.59992203 -43.13118018 31.44751702 -41.57421875 30.29296875 C-40.77935059 29.70692871 -39.98448242 29.12088867 -39.16552734 28.51708984 C-35.54752973 25.80002544 -32.05452034 22.93855843 -28.5625 20.0625 C-22.65267874 15.21667929 -16.66298536 10.50011273 -10.58203125 5.87109375 C-8.72460105 4.44854848 -6.90481418 2.97556457 -5.125 1.45703125 C-2.8125 -0.25 -2.8125 -0.25 0 0 Z " fill="#EEF5FA" transform="translate(163.8125,215.25)"/>
<path d="M0 0 C2.9375 1.80078125 2.9375 1.80078125 6 4.3125 C6.5576001 4.76181885 7.1152002 5.2111377 7.68969727 5.67407227 C8.87062753 6.62589383 10.04706839 7.58330905 11.21923828 8.54589844 C13.51938431 10.42410926 15.85677999 12.25190092 18.19750977 14.07910156 C19.95570483 15.45171239 21.70901753 16.83032865 23.4609375 18.2109375 C24.04456055 18.67081055 24.62818359 19.13068359 25.22949219 19.60449219 C26.40983073 20.53483073 27.59016927 21.46516927 28.77050781 22.39550781 C30.53403617 23.78510194 32.29821023 25.17387276 34.0625 26.5625 C34.63379639 27.01294678 35.20509277 27.46339355 35.79370117 27.92749023 C38.74287236 30.24752715 41.70687787 32.54443906 44.69921875 34.80859375 C45.29532959 35.26097412 45.89144043 35.71335449 46.50561523 36.17944336 C47.63873217 37.03725015 48.77481074 37.89116376 49.91430664 38.74047852 C53.45007563 41.41909139 55.74447691 43.32084827 56.4375 47.875 C55.55739512 54.1614634 48.44550444 58.22539965 43.6875 62.0625 C42.98818359 62.62904297 42.28886719 63.19558594 41.56835938 63.77929688 C36.1516938 68.13881554 30.61995245 72.32438297 25.02905273 76.45678711 C19.27905032 80.7294518 13.72765448 85.22471673 8.2265625 89.8125 C7.28683594 90.58980469 7.28683594 90.58980469 6.328125 91.3828125 C5.7805957 91.84059082 5.23306641 92.29836914 4.66894531 92.77001953 C1.2242194 95.30871601 -0.36824662 96.06317534 -4.75 95.625 C-5.8225 95.41875 -6.895 95.2125 -8 95 C-8 94.67 -8 94.34 -8 94 C-3.05 93.505 -3.05 93.505 2 93 C2 92.34 2 91.68 2 91 C4.99333198 88.29174725 7.94055998 86.03925284 11.3125 83.8125 C14.06736416 82.27484577 14.06736416 82.27484577 15 80 C16.485 79.505 16.485 79.505 18 79 C18.99 77.7315625 18.99 77.7315625 20 76.4375 C20.66 75.633125 21.32 74.82875 22 74 C22.99 74 23.98 74 25 74 C26.71140469 72.03814584 28.37873325 70.03697617 30 68 C32 67 32 67 34.0625 66.25 C34.701875 65.8375 35.34125 65.425 36 65 C36.06960938 64.25878906 36.13921875 63.51757812 36.2109375 62.75390625 C37.36958938 58.71009648 40.27784775 57.02379112 43.5625 54.6875 C44.17802734 54.23310547 44.79355469 53.77871094 45.42773438 53.31054688 C46.94285983 52.19475681 48.47028033 51.09569629 50 50 C49.66770167 47.12171004 49.43467033 45.45049571 47.390625 43.33203125 C46.68421875 42.83058594 45.9778125 42.32914063 45.25 41.8125 C44.43144531 41.21308594 43.61289062 40.61367187 42.76953125 39.99609375 C41.85558594 39.33738281 40.94164062 38.67867187 40 38 C37.97343703 36.46587289 35.95299311 34.92364166 33.9375 33.375 C33.39883301 32.96266113 32.86016602 32.55032227 32.30517578 32.12548828 C26.99711217 28.04295162 21.81050136 23.81427235 16.64428711 19.55419922 C13.5412954 17.00781035 10.43125295 14.57954862 7.1171875 12.3125 C4 10 4 10 2.5 6.8125 C1.18910286 3.60685717 1.18910286 3.60685717 -2.6875 2.625 C-3.780625 2.41875 -4.87375 2.2125 -6 2 C-6 2.66 -6 3.32 -6 4 C-6.66 4 -7.32 4 -8 4 C-7.34 7.3 -6.68 10.6 -6 14 C-8.5625 11.875 -8.5625 11.875 -11 9 C-11.07119063 5.44046851 -10.7009249 3.77880545 -8.3125 1.125 C-5.25129611 -0.36423433 -3.39082671 -0.35671333 0 0 Z " fill="#224C89" transform="translate(235,210)"/>
<path d="M0 0 C0.66 0.66 1.32 1.32 2 2 C1.65803871 6.9584387 -2.23039599 10.30647433 -5.7265625 13.45703125 C-6.68304688 14.23433594 -7.63953125 15.01164062 -8.625 15.8125 C-10.06746094 16.99779297 -10.06746094 16.99779297 -11.5390625 18.20703125 C-14 20 -14 20 -16 20 C-16 20.66 -16 21.32 -16 22 C-17.390625 23.32421875 -17.390625 23.32421875 -19.25 24.6875 C-19.85328125 25.14511719 -20.4565625 25.60273438 -21.078125 26.07421875 C-23 27 -23 27 -25.234375 26.64453125 C-25.81703125 26.43183594 -26.3996875 26.21914062 -27 26 C-22.89006384 21.70434963 -18.43929043 17.97655519 -13.8125 14.25 C-13.08869141 13.66089844 -12.36488281 13.07179687 -11.61914062 12.46484375 C-6.2675047 8.13375235 -6.2675047 8.13375235 -4 7 C-4 6.01 -4 5.02 -4 4 C-9.03611534 4.41652082 -12.03759421 7.1121801 -15.75 10.25 C-17.0818447 11.34686213 -18.41523845 12.44184547 -19.75 13.53515625 C-20.44351563 14.10508301 -21.13703125 14.67500977 -21.8515625 15.26220703 C-25.42307632 18.15107469 -29.08742406 20.91565465 -32.75 23.6875 C-39.28823179 28.65246745 -45.69994176 33.73407659 -52 39 C-52.66 38.01 -53.32 37.02 -54 36 C-49.72893497 31.45338238 -44.96519437 27.76101102 -40 24 C-39.24460938 23.4121875 -38.48921875 22.824375 -37.7109375 22.21875 C-37.00195312 21.6721875 -36.29296875 21.125625 -35.5625 20.5625 C-34.92441406 20.06878906 -34.28632813 19.57507813 -33.62890625 19.06640625 C-32 18 -32 18 -30 18 C-29.67 17.34 -29.34 16.68 -29 16 C-27.68 16 -26.36 16 -25 16 C-25 15.01 -25 14.02 -25 13 C-24.34 13 -23.68 13 -23 13 C-22.74992187 12.40316406 -22.49984375 11.80632812 -22.2421875 11.19140625 C-20.82684989 8.69453706 -19.45571336 7.58658964 -17.125 5.9375 C-16.44695312 5.45152344 -15.76890625 4.96554688 -15.0703125 4.46484375 C-14.38710937 3.98144531 -13.70390625 3.49804688 -13 3 C-11.94232422 2.18982422 -11.94232422 2.18982422 -10.86328125 1.36328125 C-7.1992345 -1.31754122 -4.29555404 -1.24344985 0 0 Z " fill="#2E528A" transform="translate(169,212)"/>
<path d="M0 0 C-2 2 -2 2 -5.25 3.3125 C-10.33647605 5.41251812 -13.93374957 8.9095166 -17.75 12.8125 C-20 15 -20 15 -22 15 C-22 15.99 -22 16.98 -22 18 C-23.32 18 -24.64 18 -26 18 C-26.495 19.485 -26.495 19.485 -27 21 C-27.99 21.33 -28.98 21.66 -30 22 C-30.66 22.66 -31.32 23.32 -32 24 C-32.680625 24.391875 -33.36125 24.78375 -34.0625 25.1875 C-40.66110934 29.25898236 -47.61309355 33.92782379 -51 41.125 C-52 43 -52 43 -54.0625 44.5 C-56.3165808 46.24509481 -56.61851514 47.23423473 -57 50 C-56.4225 50.268125 -55.845 50.53625 -55.25 50.8125 C-50.51562446 53.3111982 -48.48249981 55.70560551 -46.015625 60.35546875 C-44.71037451 62.46897051 -43.03566061 63.61865887 -41 65 C-41 65.66 -41 66.32 -41 67 C-44.89964688 65.28912551 -48.14752318 62.76837501 -51.5 60.1875 C-52.06847656 59.76146484 -52.63695313 59.33542969 -53.22265625 58.89648438 C-56.64893357 56.26914179 -59.75074649 53.74684322 -62 50 C-62.01398627 46.35890785 -61.53067651 44.64166768 -59.20703125 41.83203125 C-58.41683594 41.16558594 -57.62664062 40.49914062 -56.8125 39.8125 C-55.90113281 39.0390625 -54.98976563 38.265625 -54.05078125 37.46875 C-49.07657077 33.44352462 -44.07152402 29.46649706 -39.00830078 25.55371094 C-36.08469376 23.29187832 -33.1712776 21.01703129 -30.25683594 18.7434082 C-27.96033905 16.95528321 -25.65802872 15.17483819 -23.35546875 13.39453125 C-20.59956265 11.25911224 -17.87394954 9.09456939 -15.17578125 6.88671875 C-14.59256104 6.41693604 -14.00934082 5.94715332 -13.40844727 5.46313477 C-11.86358267 4.21664531 -10.32976451 2.95649938 -8.796875 1.6953125 C-5.57583027 -0.25710847 -3.70085635 -0.36132621 0 0 Z " fill="#204982" transform="translate(166,210)"/>
<path d="M0 0 C1.97090808 6.96588122 -0.46744892 12.6686223 -3.0625 19.15625 C-4.108959 22.02877366 -4.108959 22.02877366 -4.42236328 25.28173828 C-5.35588629 31.2908488 -7.68994191 36.72356082 -9.875 42.375 C-10.54595703 44.17517578 -10.54595703 44.17517578 -11.23046875 46.01171875 C-11.66746094 47.14996094 -12.10445312 48.28820312 -12.5546875 49.4609375 C-12.95155762 50.50040527 -13.34842773 51.53987305 -13.75732422 52.61083984 C-15 55 -15 55 -18 56 C-19.17082878 58.92914165 -19.17082878 58.92914165 -20 62 C-20.33 62.66 -20.66 63.32 -21 64 C-21.66 64 -22.32 64 -23 64 C-23.33 64.99 -23.66 65.98 -24 67 C-24.66 66.67 -25.32 66.34 -26 66 C-25.74492676 65.40348633 -25.48985352 64.80697266 -25.22705078 64.19238281 C-20.99238159 54.16431436 -17.05507966 44.02051545 -13.09716797 33.88085938 C-11.87223412 30.74291458 -10.6452648 27.60577156 -9.41796875 24.46875 C-8.63008983 22.45317132 -7.84232542 20.43754787 -7.0546875 18.421875 C-6.6921286 17.49461609 -6.3295697 16.56735718 -5.95602417 15.61199951 C-3.93097165 10.42223554 -1.94354551 5.22085197 0 0 Z " fill="#1C4C86" transform="translate(199,259)"/>
<path d="M0 0 C0.99 0.33 1.98 0.66 3 1 C2 4 2 4 -1 6 C-1.845625 6.70125 -2.69125 7.4025 -3.5625 8.125 C-6 10 -6 10 -8 10 C-8.33 10.99 -8.66 11.98 -9 13 C-11 13.66666667 -13 14.33333333 -15 15 C-15.33 15.99 -15.66 16.98 -16 18 C-16.99 18 -17.98 18 -19 18 C-19.33 18.99 -19.66 19.98 -20 21 C-25.37142857 25 -25.37142857 25 -28 25 C-28.66 26.32 -29.32 27.64 -30 29 C-30.66 29 -31.32 29 -32 29 C-32 29.66 -32 30.32 -32 31 C-34.40545638 32.20272819 -35.94996953 32.10071472 -38.625 32.0625 C-39.85089844 32.04896484 -39.85089844 32.04896484 -41.1015625 32.03515625 C-41.72804687 32.02355469 -42.35453125 32.01195312 -43 32 C-43.6875 29.75 -43.6875 29.75 -44 27 C-42.75 24.6875 -42.75 24.6875 -41 23 C-40.01 23 -39.02 23 -38 23 C-37.896875 22.360625 -37.79375 21.72125 -37.6875 21.0625 C-37.460625 20.381875 -37.23375 19.70125 -37 19 C-36.01 18.67 -35.02 18.34 -34 18 C-33.67 17.01 -33.34 16.02 -33 15 C-31.36935236 13.94228261 -29.69719127 12.94726954 -28 12 C-26.65368175 11.01755155 -25.31558703 10.02323436 -24 9 C-23.01 10.485 -23.01 10.485 -22 12 C-22.47945068 12.37809814 -22.95890137 12.75619629 -23.45288086 13.14575195 C-25.61999726 14.86108993 -27.7787727 16.58661861 -29.9375 18.3125 C-31.06961914 19.20485352 -31.06961914 19.20485352 -32.22460938 20.11523438 C-32.94326172 20.69208984 -33.66191406 21.26894531 -34.40234375 21.86328125 C-35.39995728 22.65665894 -35.39995728 22.65665894 -36.41772461 23.46606445 C-38.26226529 25.01840785 -38.26226529 25.01840785 -39 28 C-34.16597561 27.54175605 -31.2430362 25.18154189 -27.625 22.1875 C-27.02502197 21.70337646 -26.42504395 21.21925293 -25.80688477 20.72045898 C-24.52898558 19.68865903 -23.25407592 18.65314731 -21.98193359 17.61425781 C-19.30525235 15.43413754 -16.60528419 13.28380242 -13.90576172 11.13208008 C-12.02719358 9.63402568 -10.15159521 8.13235625 -8.27734375 6.62890625 C-7.43792236 5.96205811 -7.43792236 5.96205811 -6.58154297 5.28173828 C-5.1084256 4.08787193 -3.67902061 2.84061979 -2.25390625 1.58984375 C-1.51011719 1.06519531 -0.76632812 0.54054688 0 0 Z " fill="#305289" transform="translate(269,272)"/>
<path d="M0 0 C0.66 1.32 1.32 2.64 2 4 C-5.17863188 11.34769386 -13.23147151 17.69971868 -21.375 23.9375 C-21.90246826 24.34266846 -22.42993652 24.74783691 -22.97338867 25.1652832 C-25.94473671 27.44258722 -28.93242016 29.6957414 -31.93359375 31.93359375 C-33.22681415 32.91373055 -34.51978866 33.89419189 -35.8125 34.875 C-36.4297998 35.32738037 -37.04709961 35.77976074 -37.68310547 36.24584961 C-39.60575468 37.67072572 -39.60575468 37.67072572 -42 40 C-42.44243193 43.85421969 -42.44243193 43.85421969 -40.59472656 45.58398438 C-39.94987305 46.08220703 -39.30501953 46.58042969 -38.640625 47.09375 C-37.58488281 47.92712891 -37.58488281 47.92712891 -36.5078125 48.77734375 C-35.76273438 49.34582031 -35.01765625 49.91429687 -34.25 50.5 C-32.79531661 51.63341939 -31.34214691 52.76878465 -29.890625 53.90625 C-29.21064453 54.43734375 -28.53066406 54.9684375 -27.83007812 55.515625 C-25.73846918 57.21212745 -23.83525261 59.02951825 -22 61 C-27.04200067 59.43591116 -30.56400082 56.36902686 -34.5625 53.0625 C-35.87593679 51.99043772 -37.18972854 50.91881015 -38.50390625 49.84765625 C-39.11121582 49.35023926 -39.71852539 48.85282227 -40.34423828 48.34033203 C-42.19356672 46.84330856 -44.07853856 45.40320467 -46 44 C-45.91015625 41.82421875 -45.91015625 41.82421875 -45 39 C-42.83619879 37.08332616 -40.79111216 35.45184419 -38.4375 33.8125 C-36.24381828 32.25280378 -34.11844865 30.66470583 -32 29 C-32 28.34 -32 27.68 -32 27 C-30.68 27 -29.36 27 -28 27 C-27.67 25.35 -27.34 23.7 -27 22 C-26.2575 21.896875 -25.515 21.79375 -24.75 21.6875 C-21.8136843 20.95342107 -20.33891712 19.85500323 -18 18 C-17.34 18 -16.68 18 -16 18 C-16 17.34 -16 16.68 -16 16 C-14.48772933 14.6697891 -12.91330976 13.40972409 -11.3125 12.1875 C-4.33164956 7.12744485 -4.33164956 7.12744485 0 0 Z " fill="#0D427D" transform="translate(169,216)"/>
<path d="M0 0 C0.33 0 0.66 0 1 0 C1.39839753 4.51517196 0.06079662 7.03692957 -2 11 C-3.94394073 16.61582878 -4.54993352 22.11360417 -5 28 C-3.02 28 -1.04 28 1 28 C1.66 26.68 2.32 25.36 3 24 C3.66 24 4.32 24 5 24 C5.66 22.02 6.32 20.04 7 18 C7.66 18 8.32 18 9 18 C5.85714286 28.71428571 5.85714286 28.71428571 2 33 C-1.5 34.125 -1.5 34.125 -5 34 C-7.39125082 32.30095336 -8.57624859 30.98274263 -9.734375 28.296875 C-10.13553167 24.82804972 -9.00848752 22.21918392 -7.875 18.9375 C-7.64852783 18.27935303 -7.42205566 17.62120605 -7.1887207 16.94311523 C-5.14496808 11.13310908 -2.70360414 5.53375995 0 0 Z " fill="#1F4983" transform="translate(174,297)"/>
<path d="M0 0 C0.66 0.33 1.32 0.66 2 1 C1.37783688 4.53853266 0.44744744 7.7207804 -0.85766602 11.06567383 C-1.23798477 12.04631302 -1.61830353 13.02695221 -2.01014709 14.03730774 C-2.42058762 15.0833165 -2.83102814 16.12932526 -3.25390625 17.20703125 C-3.67421616 18.28756271 -4.09452606 19.36809418 -4.52757263 20.48136902 C-5.86872069 23.92658528 -7.21553228 27.36955542 -8.5625 30.8125 C-9.47368161 33.15024476 -10.38449333 35.48813373 -11.29492188 37.82617188 C-13.52566101 43.55246055 -15.76105212 49.27691628 -18 55 C-19.19126781 51.42619658 -18.7349445 49.49116698 -18.0625 45.8125 C-17.86785156 44.72582031 -17.67320312 43.63914063 -17.47265625 42.51953125 C-17.31667969 41.68808594 -17.16070312 40.85664063 -17 40 C-16.34 40 -15.68 40 -15 40 C-14.89171875 39.16726562 -14.7834375 38.33453125 -14.671875 37.4765625 C-13.92194609 33.59611638 -12.67369873 30.04507766 -11.25 26.375 C-10.98340576 25.67713379 -10.71681152 24.97926758 -10.44213867 24.26025391 C-4.10265836 7.77345794 -4.10265836 7.77345794 0 0 Z " fill="#2F5188" transform="translate(210,210)"/>
<path d="M0 0 C2.67314174 1.99175267 5.33883008 3.99231263 8 6 C8.54076172 6.40702148 9.08152344 6.81404297 9.63867188 7.23339844 C11.40824239 8.56797419 13.17323974 9.90841445 14.9375 11.25 C15.51717529 11.68618652 16.09685059 12.12237305 16.6940918 12.57177734 C20.88586309 15.77172617 20.88586309 15.77172617 22 18 C22.35752493 21.8612692 22.52046997 24.16724804 20.4375 27.5 C16.92137004 29.66377228 14.96122448 28.93621377 11 28 C7.91015625 25.93359375 7.91015625 25.93359375 5.0625 23.4375 C4.10472656 22.61121094 3.14695313 21.78492188 2.16015625 20.93359375 C1.44730469 20.29550781 0.73445312 19.65742188 0 19 C0.66 18.67 1.32 18.34 2 18 C2.66 18.33 3.32 18.66 4 19 C4 19.66 4 20.32 4 21 C5.299375 21.433125 5.299375 21.433125 6.625 21.875 C8.81883013 22.60627671 11.00683485 23.35535348 13.1875 24.125 C15.98651707 25.14853328 15.98651707 25.14853328 19 25 C19.33 23.68 19.66 22.36 20 21 C16.70047926 17.98357424 13.75941093 15.3582127 9.6875 13.4375 C6.38936579 11.6733817 6.22404329 10.40983487 5 7 C4.319375 6.67 3.63875 6.34 2.9375 6 C2.298125 5.67 1.65875 5.34 1 5 C0.25 2.375 0.25 2.375 0 0 Z " fill="#18468A" transform="translate(148,277)"/>
<path d="M0 0 C1.32 0.33 2.64 0.66 4 1 C-1.59069275 6.10087374 -7.48913938 10.74223502 -13.50390625 15.32421875 C-16.45790676 17.57642639 -19.38184762 19.86420194 -22.29614258 22.16748047 C-24.62399908 24.00595622 -26.96128407 25.83228463 -29.29785156 27.65966797 C-30.97648002 28.98147953 -32.64073581 30.31994411 -34.3046875 31.66015625 C-35.85542969 32.88025391 -35.85542969 32.88025391 -37.4375 34.125 C-38.34371094 34.84945312 -39.24992188 35.57390625 -40.18359375 36.3203125 C-43.53910491 38.32151888 -46.11228725 38.84245264 -50 39 C-50.66 38.34 -51.32 37.68 -52 37 C-47.05 36.505 -47.05 36.505 -42 36 C-42 35.34 -42 34.68 -42 34 C-39.00666802 31.29174725 -36.05944002 29.03925284 -32.6875 26.8125 C-29.93263584 25.27484577 -29.93263584 25.27484577 -29 23 C-28.01 22.67 -27.02 22.34 -26 22 C-25.34 21.154375 -24.68 20.30875 -24 19.4375 C-23.34 18.633125 -22.68 17.82875 -22 17 C-21.01 17 -20.02 17 -19 17 C-17.28859531 15.03814584 -15.62126675 13.03697617 -14 11 C-12 10 -10 9 -8 8 C-8 7.01 -8 6.02 -8 5 C-6.8553125 4.87625 -6.8553125 4.87625 -5.6875 4.75 C-2.47626739 3.85384206 -1.70625501 2.78388975 0 0 Z " fill="#11427E" transform="translate(279,267)"/>
<path d="M0 0 C2.75 -0.3125 2.75 -0.3125 6 0 C8.375 2.5 8.375 2.5 10 5 C9.67 5.66 9.34 6.32 9 7 C8.4225 6.505 7.845 6.01 7.25 5.5 C4.89599371 3.63019987 4.89599371 3.63019987 1 4 C1 4.99 1 5.98 1 7 C2.52182226 8.56503793 2.52182226 8.56503793 4.578125 9.99609375 C5.32707031 10.55490234 6.07601562 11.11371094 6.84765625 11.68945312 C7.64042969 12.26630859 8.43320313 12.84316406 9.25 13.4375 C18.73930271 20.43251667 18.73930271 20.43251667 22 24 C21.01 24.33 20.02 24.66 19 25 C17.2925002 23.71937515 15.62626404 22.38232443 14 21 C13.01 20.67 12.02 20.34 11 20 C11 19.34 11 18.68 11 18 C9.68 17.67 8.36 17.34 7 17 C7 16.34 7 15.68 7 15 C5.8553125 15.1546875 5.8553125 15.1546875 4.6875 15.3125 C3.3571875 15.1578125 3.3571875 15.1578125 2 15 C0.25 12.625 0.25 12.625 -1 10 C-1.33 9.34 -1.66 8.68 -2 8 C-2.039992 6.00039988 -2.04346799 3.99952758 -2 2 C-1.34 2 -0.68 2 0 2 C0 1.34 0 0.68 0 0 Z " fill="#234887" transform="translate(229,212)"/>
<path d="M0 0 C-2 2 -2 2 -5.25 3.3125 C-10.33647605 5.41251812 -13.93374957 8.9095166 -17.75 12.8125 C-20 15 -20 15 -22 15 C-22 15.99 -22 16.98 -22 18 C-23.32 18 -24.64 18 -26 18 C-26.33 18.99 -26.66 19.98 -27 21 C-27.99 21.33 -28.98 21.66 -30 22 C-30.66 22.66 -31.32 23.32 -32 24 C-32.680625 24.391875 -33.36125 24.78375 -34.0625 25.1875 C-39.12486321 28.31108581 -43.96407447 31.92685463 -48.13671875 36.17578125 C-50.12788308 38.12520209 -51.28291639 38.6118452 -54 39 C-45.44986297 30.2622914 -35.8653895 22.74380672 -26.03637695 15.50854492 C-22.65066763 13.01202828 -19.32485957 10.47733012 -16.08203125 7.796875 C-15.4573999 7.28511719 -14.83276855 6.77335938 -14.18920898 6.24609375 C-13.01330683 5.27638194 -11.84672979 4.29520493 -10.69165039 3.30078125 C-7.04157236 0.30834993 -4.70142589 -0.53649905 0 0 Z " fill="#114482" transform="translate(166,210)"/>
<path d="M0 0 C2.30465749 1.42724981 4.19832547 2.77670566 6.25 4.5 C7.08664185 5.17361572 7.08664185 5.17361572 7.94018555 5.86083984 C9.08076547 6.78104534 10.21646586 7.70733226 11.34716797 8.63964844 C13.81012921 10.66677104 16.3140609 12.64188618 18.8125 14.625 C20.2093692 15.74871354 21.60563685 16.87317831 23 18 C22.34 18.66 21.68 19.32 21 20 C20.33613281 19.36191406 19.67226562 18.72382813 18.98828125 18.06640625 C18.10527344 17.24011719 17.22226563 16.41382813 16.3125 15.5625 C15.44238281 14.73878906 14.57226562 13.91507813 13.67578125 13.06640625 C10.92489647 10.94200034 9.37529151 10.44151834 6 10 C4.08048307 8.44962094 2.98610377 6.97750135 1.6875 4.875 C-0.6309324 2.298964 -2.63541004 2.29907466 -6 2 C-6 2.66 -6 3.32 -6 4 C-6.66 4 -7.32 4 -8 4 C-7.34 7.3 -6.68 10.6 -6 14 C-8.5625 11.875 -8.5625 11.875 -11 9 C-11.07119063 5.44046851 -10.7009249 3.77880545 -8.3125 1.125 C-5.24114437 -0.36917301 -3.40368586 -0.36863024 0 0 Z " fill="#124681" transform="translate(235,210)"/>
<path d="M0 0 C0.33 0 0.66 0 1 0 C1 33.66 1 67.32 1 102 C-0.98 102.495 -0.98 102.495 -3 103 C-2.67657623 102.37225174 -2.35315247 101.74450348 -2.01992798 101.09773254 C-0.61858169 96.84155359 -0.69186251 92.89051027 -0.68115234 88.4362793 C-0.67110672 87.47969925 -0.6610611 86.5231192 -0.65071106 85.53755188 C-0.61987816 82.38311348 -0.60284347 79.22875997 -0.5859375 76.07421875 C-0.56722596 73.88417328 -0.54765256 71.69413501 -0.5272522 69.50410461 C-0.47592365 63.74531301 -0.43630167 57.98649803 -0.39910889 52.2276001 C-0.35907388 46.34894016 -0.30797921 40.47037753 -0.2578125 34.59179688 C-0.16104459 23.06126626 -0.07664245 11.53068072 0 0 Z " fill="#E7FEFF" transform="translate(94,205)"/>
<path d="M0 0 C1.1171875 3.7734375 1.1171875 3.7734375 0.0625 5.8125 C-1.43421465 8.89397134 -1.12978288 11.62564522 -1 15 C-1.66 15 -2.32 15 -3 15 C-3.26554687 15.78246094 -3.53109375 16.56492188 -3.8046875 17.37109375 C-4.15789062 18.38300781 -4.51109375 19.39492187 -4.875 20.4375 C-5.22304687 21.44683594 -5.57109375 22.45617187 -5.9296875 23.49609375 C-7 26 -7 26 -9 27 C-9.33897261 28.66552888 -9.67042032 30.332587 -10 32 C-11.0754737 35.05672545 -12.29165649 38.05619957 -13.5 41.0625 C-14.13766227 42.65665568 -14.77315745 44.25168027 -15.40625 45.84765625 C-15.82874023 46.8996521 -15.82874023 46.8996521 -16.25976562 47.97290039 C-16.98681738 49.96389997 -17.52513082 51.93576682 -18 54 C-18.66 54 -19.32 54 -20 54 C-20.33 54.66 -20.66 55.32 -21 56 C-20.26725141 51.20312222 -18.54661254 46.8989857 -16.796875 42.40234375 C-16.47720764 41.57223282 -16.15754028 40.74212189 -15.82818604 39.88685608 C-15.15085936 38.13030124 -14.47159476 36.3744926 -13.79052734 34.61938477 C-12.76358411 31.97251208 -11.74258173 29.32341177 -10.72265625 26.67382812 C-7.27143074 17.728886 -3.76429198 8.81878272 0 0 Z " fill="#0F4080" transform="translate(213,196)"/>
<path d="M0 0 C0.495 1.485 0.495 1.485 1 3 C0.15695312 3.60328125 -0.68609375 4.2065625 -1.5546875 4.828125 C-2.66177356 5.63498433 -3.76852707 6.44230008 -4.875 7.25 C-5.43058594 7.64574219 -5.98617187 8.04148437 -6.55859375 8.44921875 C-9.57593969 10.66678625 -11.70648791 12.43056157 -13 16 C-13.99 16 -14.98 16 -16 16 C-17.35432675 17.31200404 -18.68733482 18.64631404 -20 20 C-20.99 20.33 -21.98 20.66 -23 21 C-25.64296752 23.33203016 -26.87224426 24.61673278 -28 28 C-28.99 28 -29.98 28 -31 28 C-31.66 29.32 -32.32 30.64 -33 32 C-33.66 31.67 -34.32 31.34 -35 31 C-33.62402356 26.1754826 -30.89454967 23.93353412 -27 21.0625 C-25.74594976 20.10826212 -24.49205154 19.15382442 -23.23828125 18.19921875 C-22.5623291 17.69052246 -21.88637695 17.18182617 -21.18994141 16.65771484 C-17.15707802 13.60496764 -13.17706053 10.48397108 -9.1875 7.375 C-8.39279297 6.75890869 -7.59808594 6.14281738 -6.77929688 5.50805664 C-5.67231445 4.64942017 -5.67231445 4.64942017 -4.54296875 3.7734375 C-3.88321045 3.26216309 -3.22345215 2.75088867 -2.54370117 2.22412109 C-1.0475008 1.08573433 -1.0475008 1.08573433 0 0 Z " fill="#134487" transform="translate(259,267)"/>
<path d="M0 0 C-3.83228898 4.00814928 -7.92522322 7.42828753 -12.3125 10.8125 C-12.95767578 11.31458984 -13.60285156 11.81667969 -14.26757812 12.33398438 C-15.84267125 13.55905681 -17.42100316 14.7799632 -19 16 C-19.33 14.68 -19.66 13.36 -20 12 C-18.21326795 10.4941255 -16.42046492 8.9954515 -14.625 7.5 C-13.62726563 6.6646875 -12.62953125 5.829375 -11.6015625 4.96875 C-9 3 -9 3 -7 3 C-7 2.01 -7 1.02 -7 0 C-3.98968256 -0.93423645 -3.13349732 -1.04449911 0 0 Z " fill="#2E508A" transform="translate(267,267)"/>
<path d="M0 0 C0.33 0 0.66 0 1 0 C1.26973577 3.05700537 1.12984167 4.75268254 -0.3125 7.5 C-3.67542112 14.47494752 -4.78549964 22.3921864 -6 30 C-6.33 29.34 -6.66 28.68 -7 28 C-7.99 27.67 -8.98 27.34 -10 27 C-2.95601852 2.95601852 -2.95601852 2.95601852 0 0 Z " fill="#184D91" transform="translate(174,297)"/>
<path d="M0 0 C4.98012761 1.50912958 8.24259942 4.55661849 12 8 C11.01 8.495 11.01 8.495 10 9 C10 9.99 10 10.98 10 12 C5.57894737 13.22807018 5.57894737 13.22807018 2.9375 12.1875 C2.298125 11.795625 1.65875 11.40375 1 11 C0.29875 10.649375 -0.4025 10.29875 -1.125 9.9375 C-2.41666667 9.29166667 -3.70833333 8.64583333 -5 8 C-5 7.34 -5 6.68 -5 6 C-5.99 5.67 -6.98 5.34 -8 5 C-7.67 3.68 -7.34 2.36 -7 1 C-5.87851563 1.97453125 -5.87851563 1.97453125 -4.734375 2.96875 C-3.25710937 4.22171875 -3.25710937 4.22171875 -1.75 5.5 C-0.77546875 6.3353125 0.1990625 7.170625 1.203125 8.03125 C3.97510035 10.38373771 3.97510035 10.38373771 8 10 C7.61631426 7.46551249 7.31730181 6.2822997 5.37109375 4.55078125 C4.73300781 4.14214844 4.09492188 3.73351562 3.4375 3.3125 C2.27956918 2.55996146 1.13009755 1.79372387 0 1 C0 0.67 0 0.34 0 0 Z " fill="#325287" transform="translate(157,290)"/>
<path d="M0 0 C-3.3 8.25 -6.6 16.5 -10 25 C-10.33 25 -10.66 25 -11 25 C-11.47117655 18.8747049 -9.75350741 13.31913903 -6.90625 7.9296875 C-5.64976614 5.25424342 -5.86758633 2.91310077 -6 0 C-3 -1 -3 -1 0 0 Z " fill="#2E5189" transform="translate(180,296)"/>
<path d="M0 0 C8.11743033 5.08949997 15.52786075 11.02654018 23 17 C22.34 17.33 21.68 17.66 21 18 C19.125 17.1875 19.125 17.1875 17 16 C16.360625 15.690625 15.72125 15.38125 15.0625 15.0625 C12.62411088 13.80636015 10.28369402 12.52246268 8 11 C8 10.34 8 9.68 8 9 C7.4225 8.773125 6.845 8.54625 6.25 8.3125 C3.40260191 6.65151778 1.87932807 4.68475439 0 2 C0 1.34 0 0.68 0 0 Z " fill="#2F5286" transform="translate(117,266)"/>
<path d="M0 0 C1.29651382 3.88954147 0.40133749 5.20649154 -1.08984375 8.98046875 C-1.54423828 10.14384766 -1.99863281 11.30722656 -2.46679688 12.50585938 C-2.95212891 13.72080078 -3.43746094 14.93574219 -3.9375 16.1875 C-4.41896484 17.41404297 -4.90042969 18.64058594 -5.39648438 19.90429688 C-6.58934292 22.93959041 -7.79081242 25.9711827 -9 29 C-9.66 29 -10.32 29 -11 29 C-10.54287762 27.45797384 -10.08423653 25.91639786 -9.625 24.375 C-9.35171875 23.45589844 -9.0784375 22.53679687 -8.796875 21.58984375 C-8.21163026 19.68779834 -7.56120305 17.8054972 -6.875 15.9375 C-5.7024199 12.00098111 -5.34470948 8.08208591 -5 4 C-4.01 3.67 -3.02 3.34 -2 3 C-1.34 2.01 -0.68 1.02 0 0 Z " fill="#123E81" transform="translate(205,254)"/>
<path d="M0 0 C-0.95367937 5.3904137 -2.90628897 10.18815022 -4.9375 15.25 C-5.47793945 16.63445312 -5.47793945 16.63445312 -6.02929688 18.046875 C-6.37927734 18.9234375 -6.72925781 19.8 -7.08984375 20.703125 C-7.56732056 21.90437012 -7.56732056 21.90437012 -8.05444336 23.12988281 C-9 25 -9 25 -11 26 C-11 24.35 -11 22.7 -11 21 C-10.34 21 -9.68 21 -9 21 C-9.226875 20.278125 -9.45375 19.55625 -9.6875 18.8125 C-10.08677021 15.2190681 -9.17364926 13.81769349 -7 11 C-6.34 11 -5.68 11 -5 11 C-5.309375 9.9171875 -5.309375 9.9171875 -5.625 8.8125 C-6.06417787 5.51866598 -5.53657115 3.91139797 -4 1 C-2 0 -2 0 0 0 Z " fill="#154493" transform="translate(225,206)"/>
<path d="M0 0 C0.99 0.99 1.98 1.98 3 3 C0.40559005 5.17857341 -2.20203655 7.34070005 -4.8125 9.5 C-5.55048828 10.12003906 -6.28847656 10.74007813 -7.04882812 11.37890625 C-7.76103516 11.96542969 -8.47324219 12.55195313 -9.20703125 13.15625 C-9.8616333 13.70087891 -10.51623535 14.24550781 -11.19067383 14.80664062 C-13 16 -13 16 -16 16 C-16 15.34 -16 14.68 -16 14 C-15.01 14 -14.02 14 -13 14 C-12.896875 13.360625 -12.79375 12.72125 -12.6875 12.0625 C-12.460625 11.381875 -12.23375 10.70125 -12 10 C-11.01 9.67 -10.02 9.34 -9 9 C-8.67 8.01 -8.34 7.02 -8 6 C-6.35666496 4.96210419 -4.68756133 3.96432076 -3 3 C-1.24850835 1.41754725 -1.24850835 1.41754725 0 0 Z " fill="#33558B" transform="translate(244,281)"/>
<path d="M0 0 C0.66 0 1.32 0 2 0 C1.37658609 3.5382203 0.44678155 6.73293028 -0.84765625 10.08203125 C-1.20537109 11.01337891 -1.56308594 11.94472656 -1.93164062 12.90429688 C-2.30482422 13.86400391 -2.67800781 14.82371094 -3.0625 15.8125 C-3.62807617 17.28106445 -3.62807617 17.28106445 -4.20507812 18.77929688 C-5.13315595 21.1876001 -6.06490116 23.59441614 -7 26 C-7.33 26 -7.66 26 -8 26 C-8 23.69 -8 21.38 -8 19 C-7.34 19 -6.68 19 -6 19 C-6.061875 17.989375 -6.12375 16.97875 -6.1875 15.9375 C-5.90135982 9.92855627 -3.41955941 4.90632437 0 0 Z " fill="#2F5187" transform="translate(189,265)"/>
<path d="M0 0 C2.38824042 8.54255227 -1.80105046 16.15017916 -5 24 C-5.99 23.67 -6.98 23.34 -8 23 C-5.81659819 15.13620323 -3.00714974 7.58324716 0 0 Z " fill="#315389" transform="translate(199,259)"/>
<path d="M0 0 C5.75 1.75 5.75 1.75 8 4 C8.63679688 4.12375 9.27359375 4.2475 9.9296875 4.375 C12.74030461 5.22348818 13.49089877 6.60445893 15.125 9 C17.10073376 12.02283894 17.10073376 12.02283894 20 14 C20 14.66 20 15.32 20 16 C16.07158968 14.28192374 12.80936699 11.72691311 9.4375 9.125 C8.86064453 8.69058594 8.28378906 8.25617188 7.68945312 7.80859375 C4.63959831 5.4657987 2.11041602 3.22946223 0 0 Z " fill="#164487" transform="translate(105,261)"/>
<path d="M0 0 C0.99 0 1.98 0 3 0 C3 0.66 3 1.32 3 2 C4.32 2.33 5.64 2.66 7 3 C7 3.66 7 4.32 7 5 C8.65 5.33 10.3 5.66 12 6 C12.33 6.99 12.66 7.98 13 9 C13.78375 8.938125 14.5675 8.87625 15.375 8.8125 C16.24125 8.874375 17.1075 8.93625 18 9 C20 12 20 12 19.625 14.1875 C19.315625 15.0846875 19.315625 15.0846875 19 16 C16.76748835 14.27501468 14.53900232 12.5452126 12.3125 10.8125 C11.68666016 10.32974609 11.06082031 9.84699219 10.41601562 9.34960938 C6.68107863 6.43596743 3.27420827 3.42445875 0 0 Z " fill="#124585" transform="translate(233,227)"/>
<path d="M0 0 C0.33 0.99 0.66 1.98 1 3 C0.34 3 -0.32 3 -1 3 C-0.98839844 3.62648438 -0.97679687 4.25296875 -0.96484375 4.8984375 C-0.95582031 5.71570313 -0.94679687 6.53296875 -0.9375 7.375 C-0.92589844 8.18710937 -0.91429687 8.99921875 -0.90234375 9.8359375 C-1 12 -1 12 -2 14 C-5.0625 14.625 -5.0625 14.625 -8 15 C-7.24123547 12.8706608 -6.4675766 10.74662427 -5.6875 8.625 C-5.25824219 7.44164062 -4.82898438 6.25828125 -4.38671875 5.0390625 C-3 2 -3 2 0 0 Z " fill="#1C4A8B" transform="translate(182,281)"/>
<path d="M0 0 C0.74443359 0.56267578 0.74443359 0.56267578 1.50390625 1.13671875 C2.18324219 1.64847656 2.86257813 2.16023437 3.5625 2.6875 C4.28566406 3.23277344 5.00882812 3.77804688 5.75390625 4.33984375 C7.80722704 5.85751564 9.89388218 7.30715855 12 8.75 C12.99 9.4925 13.98 10.235 15 11 C15 11.66 15 12.32 15 13 C14.01 13 13.02 13 12 13 C12 12.34 12 11.68 12 11 C11.44828125 10.90589844 10.8965625 10.81179688 10.328125 10.71484375 C7.37594435 9.8083856 5.27278656 8.33656482 2.75 6.5625 C1.85796875 5.94503906 0.9659375 5.32757813 0.046875 4.69140625 C-0.62859375 4.13324219 -1.3040625 3.57507813 -2 3 C-2 2.34 -2 1.68 -2 1 C-1.34 0.67 -0.68 0.34 0 0 Z " fill="#305288" transform="translate(264,246)"/>
<path d="M0 0 C2.90365755 0.31390892 4.60838706 0.67365588 6.875 2.5625 C8.85380953 6.84992064 7.65388245 10.98700064 6.25390625 15.296875 C5.54362303 17.21362015 4.77659858 19.10915128 4 21 C3.01 20.34 2.02 19.68 1 19 C1.33 17.02 1.66 15.04 2 13 C2.99 13 3.98 13 5 13 C5.020625 11.72125 5.04125 10.4425 5.0625 9.125 C5.07410156 8.40570313 5.08570313 7.68640625 5.09765625 6.9453125 C5.12649242 4.91814596 5.12649242 4.91814596 4 3 C1.97536745 2.34786708 1.97536745 2.34786708 0 2 C0 1.34 0 0.68 0 0 Z " fill="#104981" transform="translate(222,185)"/>
<path d="M0 0 C0.99 0.33 1.98 0.66 3 1 C2.67 2.65 2.34 4.3 2 6 C0.329375 6.4021875 0.329375 6.4021875 -1.375 6.8125 C-5.21840951 7.65809019 -5.21840951 7.65809019 -7 11 C-9.625 11.1875 -9.625 11.1875 -12 11 C-9.20482229 8.12011993 -6.34554952 5.32435285 -3.375 2.625 C-2.80523437 2.10164063 -2.23546875 1.57828125 -1.6484375 1.0390625 C-1.10445313 0.69617188 -0.56046875 0.35328125 0 0 Z " fill="#2C528C" transform="translate(283,261)"/>
<path d="M0 0 C6.00287896 0.35222885 8.66444352 1.89495108 12.9375 6.0625 C13.43056641 6.53494141 13.92363281 7.00738281 14.43164062 7.49414062 C15.63383559 8.6496484 16.81878345 9.82305548 18 11 C17.01 11.66 16.02 12.32 15 13 C13.06096151 11.39766277 11.12373796 9.79321522 9.1875 8.1875 C8.64029297 7.73568359 8.09308594 7.28386719 7.52929688 6.81835938 C4.90930608 4.64297307 2.34318968 2.47473717 0 0 Z " fill="#33548A" transform="translate(239,219)"/>
<path d="M0 0 C0.66 0 1.32 0 2 0 C2.33 0.99 2.66 1.98 3 3 C6.465 2.505 6.465 2.505 10 2 C10 3.32 10 4.64 10 6 C7.59454362 7.20272819 6.05003047 7.10071472 3.375 7.0625 C2.14910156 7.04896484 2.14910156 7.04896484 0.8984375 7.03515625 C-0.04128906 7.01775391 -0.04128906 7.01775391 -1 7 C-1.625 4.625 -1.625 4.625 -2 2 C-1.34 1.34 -0.68 0.68 0 0 Z " fill="#244E88" transform="translate(227,297)"/>
<path d="M0 0 C0.66386719 0.69480469 1.32773438 1.38960938 2.01171875 2.10546875 C5.37576548 5.46951548 9.07930104 8.37238254 12.8125 11.3125 C13.50537109 11.86228516 14.19824219 12.41207031 14.91210938 12.97851562 C16.60584555 14.32182363 18.30261397 15.66130687 20 17 C19.01 17.33 18.02 17.66 17 18 C15.46602057 16.81755753 13.93329797 15.62687758 12.5 14.32421875 C10.82697958 12.78728071 10.82697958 12.78728071 8 11 C6.182108 9.47361852 4.40341542 7.90752023 2.62109375 6.33984375 C1.0262537 4.91933428 1.0262537 4.91933428 -1 4 C-0.67 2.68 -0.34 1.36 0 0 Z " fill="#224C89" transform="translate(122,257)"/>
<path d="M0 0 C0.33 0 0.66 0 1 0 C1.625 3.375 1.625 3.375 2 7 C1.34 7.66 0.68 8.32 0 9 C-1.3492671 11.92341206 -2 13.75207316 -2 17 C-2.66 17 -3.32 17 -4 17 C-4 17.66 -4 18.32 -4 19 C-4.99 19.33 -5.98 19.66 -7 20 C-4.80962826 13.27954125 -2.44234339 6.63275997 0 0 Z " fill="#35578B" transform="translate(218,210)"/>
<path d="M0 0 C1.13643966 3.40931897 0.86747764 4.00335456 -0.4375 7.1875 C-0.72496094 7.90292969 -1.01242188 8.61835938 -1.30859375 9.35546875 C-1.53675781 9.89816406 -1.76492187 10.44085938 -2 11 C-2.33 10.01 -2.66 9.02 -3 8 C-3.99 8.495 -3.99 8.495 -5 9 C-5.33 9.99 -5.66 10.98 -6 12 C-6.99 12.33 -7.98 12.66 -9 13 C-8.21371401 9.89321146 -7.36035199 6.90741897 -6 4 C-3.375 2.5625 -3.375 2.5625 -1 2 C-0.67 1.34 -0.34 0.68 0 0 Z " fill="#E5EEF7" transform="translate(208,233)"/>
<path d="M0 0 C0.66 1.32 1.32 2.64 2 4 C-0.96306871 7.05566461 -4.01720161 9.97135828 -7.1875 12.8125 C-7.86167969 13.41707031 -8.53585938 14.02164063 -9.23046875 14.64453125 C-11 16 -11 16 -13 16 C-11.17322325 11.46284253 -7.99290081 9.60704586 -4.09375 6.87890625 C-1.71916643 4.74798331 -0.95042348 3.01139615 0 0 Z " fill="#124887" transform="translate(169,216)"/>
<path d="M0 0 C0.66 0.33 1.32 0.66 2 1 C1.34 2.65 0.68 4.3 0 6 C-0.99 6 -1.98 6 -3 6 C-3 7.32 -3 8.64 -3 10 C-5.31 10 -7.62 10 -10 10 C-6.66666667 6.66666667 -3.33333333 3.33333333 0 0 Z " fill="#184480" transform="translate(271,257)"/>
<path d="M0 0 C0.33 0.66 0.66 1.32 1 2 C1.66 2.33 2.32 2.66 3 3 C1.68 5.97 0.36 8.94 -1 12 C-1.66 12 -2.32 12 -3 12 C-3.33 12.99 -3.66 13.98 -4 15 C-4.66 14.67 -5.32 14.34 -6 14 C-5.18836991 12.04130597 -4.37566899 10.08305564 -3.5625 8.125 C-3.11003906 7.03445313 -2.65757812 5.94390625 -2.19140625 4.8203125 C-1.50456537 3.19441376 -0.78934113 1.57868226 0 0 Z " fill="#37578E" transform="translate(179,311)"/>
<path d="M0 0 C1.65 0 3.3 0 5 0 C5.33 0.66 5.66 1.32 6 2 C6.825 2.433125 7.65 2.86625 8.5 3.3125 C11 5 11 5 11.8125 7.6875 C11.874375 8.450625 11.93625 9.21375 12 10 C11.01 10 10.02 10 9 10 C8.814375 9.443125 8.62875 8.88625 8.4375 8.3125 C6.59884617 5.35466557 4.33753648 3.94698833 1.4609375 2.05078125 C0.97882813 1.70402344 0.49671875 1.35726562 0 1 C0 0.67 0 0.34 0 0 Z " fill="#31568A" transform="translate(277,249)"/>
<path d="M0 0 C0.66 0.33 1.32 0.66 2 1 C-0.64 7.6 -3.28 14.2 -6 21 C-6.66 20.34 -7.32 19.68 -8 19 C-7.01 17.515 -7.01 17.515 -6 16 C-5.53870717 14.3525256 -5.07968049 12.70432086 -4.640625 11.05078125 C-3.44577498 7.22580407 -1.69356815 3.62555124 0 0 Z " fill="#0D4075" transform="translate(213,233)"/>
<path d="M0 0 C2.74967731 1.29055736 5.07873302 2.71084296 7.453125 4.6015625 C8.38125 5.33632813 8.38125 5.33632813 9.328125 6.0859375 C9.96234375 6.59382813 10.5965625 7.10171875 11.25 7.625 C11.8996875 8.140625 12.549375 8.65625 13.21875 9.1875 C14.81503967 10.45514179 16.40786526 11.72714361 18 13 C17.01 13.495 17.01 13.495 16 14 C14.64455078 12.95199219 14.64455078 12.95199219 13.26171875 11.8828125 C12.07035217 10.96349026 10.87894373 10.04422226 9.6875 9.125 C9.09259766 8.66480469 8.49769531 8.20460938 7.88476562 7.73046875 C5.29971995 5.73752851 2.71700932 3.81133955 0 2 C0 1.34 0 0.68 0 0 Z " fill="#083C76" transform="translate(129,263)"/>
<path d="M0 0 C5.72554976 4.25906017 11.37992202 8.60280936 17 13 C16.01 13.495 16.01 13.495 15 14 C3.32091538 5.44544971 3.32091538 5.44544971 0 2 C0 1.34 0 0.68 0 0 Z " fill="#0A3976" transform="translate(259,229)"/>
<path d="M0 0 C4.2026393 2.63886654 7.56638098 5.36440339 11 9 C4.25 8.125 4.25 8.125 2 7 C1.26924352 4.6859378 0.59861742 2.35171131 0 0 Z " fill="#305387" transform="translate(251,236)"/>
<path d="M0 0 C-2.20349633 2.20349633 -4.27591577 2.92083697 -7.125 4.06640625 C-9.14185577 5.07063235 -10.58152369 6.24420013 -12.25 7.75 C-13.1575 8.4925 -14.065 9.235 -15 10 C-15.99 9.67 -16.98 9.34 -18 9 C-16.13778516 7.48130052 -14.26287863 5.98620233 -12.375 4.5 C-11.85292969 4.07074219 -11.33085937 3.64148438 -10.79296875 3.19921875 C-7.08145284 0.31248415 -4.67212303 -0.50509438 0 0 Z " fill="#0A4178" transform="translate(166,210)"/>
<path d="M0 0 C0.66 0.33 1.32 0.66 2 1 C0.35 5.29 -1.3 9.58 -3 14 C-5 11 -5 11 -4.625 7.8125 C-4.41875 6.884375 -4.2125 5.95625 -4 5 C-3.01 5 -2.02 5 -1 5 C-0.67 3.35 -0.34 1.7 0 0 Z " fill="#305287" transform="translate(216,197)"/>
<path d="M0 0 C0.66 0 1.32 0 2 0 C0.35544513 5.60643705 -1.33956328 10.39493445 -5 15 C-5.66 15 -6.32 15 -7 15 C-7 14.34 -7 13.68 -7 13 C-6.505 12.54625 -6.01 12.0925 -5.5 11.625 C-3.54781326 9.87871033 -3.54781326 9.87871033 -4 6 C-3.34 6 -2.68 6 -2 6 C-1.34 4.02 -0.68 2.04 0 0 Z " fill="#104289" transform="translate(181,315)"/>
<path d="M0 0 C2.75 -0.3125 2.75 -0.3125 6 0 C8.375 2.5 8.375 2.5 10 5 C9.67 5.66 9.34 6.32 9 7 C8.1646875 6.2575 8.1646875 6.2575 7.3125 5.5 C4.61837017 3.75245633 3.14624993 3.73781251 0 4 C0 2.68 0 1.36 0 0 Z " fill="#35538E" transform="translate(229,212)"/>
<path d="M0 0 C5.62917348 0.40208382 8.00386479 2.28930302 12 6 C11.01 6.33 10.02 6.66 9 7 C8.67 7.66 8.34 8.32 8 9 C7.4225 8.05125 6.845 7.1025 6.25 6.125 C4.17183449 3.23865902 3.24531925 2.15904259 0 1 C0 0.67 0 0.34 0 0 Z " fill="#0E3B73" transform="translate(231,210)"/>
<path d="M0 0 C1.051875 0.433125 1.051875 0.433125 2.125 0.875 C5.05452503 2.02133588 8.00921653 3.02625654 11 4 C11 5.32 11 6.64 11 8 C7.63833578 7.40501518 5.78840322 6.25635842 3.25 4 C2.63640625 3.46375 2.0228125 2.9275 1.390625 2.375 C0.93171875 1.92125 0.4728125 1.4675 0 1 C0 0.67 0 0.34 0 0 Z " fill="#164586" transform="translate(138,287)"/>
<path d="M0 0 C0 0.99 0 1.98 0 3 C-3.66666667 3 -7.33333333 3 -11 3 C-11 2.34 -11 1.68 -11 1 C-6.87831311 -0.62950412 -4.29299643 -1.26264601 0 0 Z " fill="#1E4A84" transform="translate(169,212)"/>
<path d="M0 0 C1.48285242 0.95262034 2.96118201 1.91228405 4.4375 2.875 C5.67306641 3.67550781 5.67306641 3.67550781 6.93359375 4.4921875 C9 6 9 6 10 8 C9.01 8.33 8.02 8.66 7 9 C4.42414232 7.17805188 2.22875556 5.22875556 0 3 C0 2.01 0 1.02 0 0 Z " fill="#365587" transform="translate(241,228)"/>
<path d="M0 0 C2 3 2 3 1.75 6.5625 C1 10 1 10 -1 12 C-1.99 11.67 -2.98 11.34 -4 11 C-2.68 7.37 -1.36 3.74 0 0 Z " fill="#35578B" transform="translate(190,282)"/>
<path d="M0 0 C0.99 0 1.98 0 3 0 C2.5020163 3.73487777 2.12508244 5.81237635 0 9 C-0.66 8.67 -1.32 8.34 -2 8 C-1.47731534 5.23723823 -0.89130413 2.6739124 0 0 Z " fill="#32578D" transform="translate(185,295)"/>
<path d="M0 0 C1.31611677 0.95336021 2.62778961 1.91285774 3.9375 2.875 C4.66839844 3.40867187 5.39929688 3.94234375 6.15234375 4.4921875 C8 6 8 6 9 8 C6.07003641 7.37215066 3.48244217 6.71202908 1 5 C0.25 2.375 0.25 2.375 0 0 Z " fill="#134186" transform="translate(148,277)"/>
<path d="M0 0 C0.33 0.66 0.66 1.32 1 2 C-0.27984466 5.83953399 -2.81501296 7.65316744 -6 10 C-4.52307692 3.47692308 -4.52307692 3.47692308 -1.875 1.0625 C-1.25625 0.711875 -0.6375 0.36125 0 0 Z " fill="#103E7A" transform="translate(220,185)"/>
<path d="M0 0 C1.1615882 3.48476459 0.77669581 4.67248371 -0.25 8.125 C-0.50265625 9.01445312 -0.7553125 9.90390625 -1.015625 10.8203125 C-1.50289062 11.89925781 -1.50289062 11.89925781 -2 13 C-2.99 13.33 -3.98 13.66 -5 14 C-4.54636829 12.41531323 -4.08688548 10.83230076 -3.625 9.25 C-3.36976563 8.36828125 -3.11453125 7.4865625 -2.8515625 6.578125 C-2.0790066 4.23919428 -1.16374324 2.16557438 0 0 Z " fill="#0C3E7F" transform="translate(185,268)"/>
<path d="M0 0 C0.721875 0.103125 1.44375 0.20625 2.1875 0.3125 C-2.12019231 5.23557692 -2.12019231 5.23557692 -5.625 5.625 C-6.7078125 5.4703125 -6.7078125 5.4703125 -7.8125 5.3125 C-3.50480769 0.38942308 -3.50480769 0.38942308 0 0 Z " fill="#274C87" transform="translate(128.8125,249.6875)"/>
<path d="M0 0 C2.475 0.495 2.475 0.495 5 1 C4.5206753 5.31392226 3.2542015 7.16569547 0 10 C0.66 7.36 1.32 4.72 2 2 C1.34 2 0.68 2 0 2 C0 1.34 0 0.68 0 0 Z " fill="#E7FEFF" transform="translate(487,204)"/>
<path d="M0 0 C0.33 0 0.66 0 1 0 C1.39253254 4.44870215 0.15305957 7.14243493 -2 11 C-2.66 11 -3.32 11 -4 11 C-3.5247412 9.35303396 -3.04468109 7.70745272 -2.5625 6.0625 C-2.29566406 5.14597656 -2.02882812 4.22945313 -1.75390625 3.28515625 C-1 1 -1 1 0 0 Z " fill="#154596" transform="translate(174,297)"/>
<path d="M0 0 C1 3 1 3 0.22265625 5.04296875 C-0.16019531 5.75066406 -0.54304687 6.45835937 -0.9375 7.1875 C-1.31777344 7.90292969 -1.69804687 8.61835938 -2.08984375 9.35546875 C-2.54037109 10.16951172 -2.54037109 10.16951172 -3 11 C-4 8 -4 8 -4 6 C-3.34 6 -2.68 6 -2 6 C-2.33 4.68 -2.66 3.36 -3 2 C-2.01 1.34 -1.02 0.68 0 0 Z " fill="#114178" transform="translate(218,221)"/>
<path d="M0 0 C3.36591866 1.44253657 5.51047079 3.33264727 8 6 C6.35 6 4.7 6 3 6 C2.67 5.01 2.34 4.02 2 3 C1.34 3 0.68 3 0 3 C0 2.01 0 1.02 0 0 Z " fill="#365586" transform="translate(109,260)"/>
<path d="M0 0 C1.32 0.33 2.64 0.66 4 1 C1.36 2.98 -1.28 4.96 -4 7 C-4 5.68 -4 4.36 -4 3 C-3.01 3 -2.02 3 -1 3 C-0.67 2.01 -0.34 1.02 0 0 Z " fill="#37568D" transform="translate(272,260)"/>
<path d="M0 0 C0.66 0 1.32 0 2 0 C2.66 1.65 3.32 3.3 4 5 C2.68 5 1.36 5 0 5 C-0.66 4.01 -1.32 3.02 -2 2 C-1.34 2 -0.68 2 0 2 C0 1.34 0 0.68 0 0 Z " fill="#284D84" transform="translate(257,229)"/>
<path d="M0 0 C2.0625 0.4375 2.0625 0.4375 4 1 C3.5020163 4.73487777 3.12508244 6.81237635 1 10 C1.33 7.36 1.66 4.72 2 2 C1.01 1.67 0.02 1.34 -1 1 C-0.67 0.67 -0.34 0.34 0 0 Z " fill="#E0EFFB" transform="translate(221,190)"/>
<path d="M0 0 C0.99 1.32 1.98 2.64 3 4 C2.38125 4.598125 1.7625 5.19625 1.125 5.8125 C-1.13676954 8.00811144 -1.13676954 8.00811144 -3 11 C-3.39253254 6.55129785 -2.15305957 3.85756507 0 0 Z " fill="#325184" transform="translate(221,185)"/>
<path d="M0 0 C0.66 0.33 1.32 0.66 2 1 C2 2.65 2 4.3 2 6 C1.01 6.33 0.02 6.66 -1 7 C-1 6.01 -1 5.02 -1 4 C-1.66 3.67 -2.32 3.34 -3 3 C-2.01 2.01 -1.02 1.02 0 0 Z " fill="#204C82" transform="translate(287,258)"/>
<path d="M0 0 C1.32 0.33 2.64 0.66 4 1 C1.69 2.65 -0.62 4.3 -3 6 C-3.33 5.01 -3.66 4.02 -4 3 C-2.25 1.4375 -2.25 1.4375 0 0 Z " fill="#34548C" transform="translate(119,245)"/>
<path d="M0 0 C2.97 1.98 2.97 1.98 6 4 C5.67 4.99 5.34 5.98 5 7 C4.01 7 3.02 7 2 7 C1.34 4.69 0.68 2.38 0 0 Z " fill="#2F5188" transform="translate(231,220)"/>
<path d="M0 0 C1.65 0.33 3.3 0.66 5 1 C4.67 2.32 4.34 3.64 4 5 C3.01 5 2.02 5 1 5 C0.34 4.01 -0.32 3.02 -1 2 C-0.67 1.34 -0.34 0.68 0 0 Z " fill="#26518E" transform="translate(166,213)"/>
<path d="M0 0 C0.33 0.66 0.66 1.32 1 2 C0.00390625 4.1640625 0.00390625 4.1640625 -1.4375 6.625 C-1.91058594 7.44226563 -2.38367188 8.25953125 -2.87109375 9.1015625 C-3.24363281 9.72804687 -3.61617188 10.35453125 -4 11 C-5 8 -5 8 -4.2578125 6.2109375 C-1.11111111 1.11111111 -1.11111111 1.11111111 0 0 Z " fill="#E7FEFF" transform="translate(84,223)"/>
<path d="M0 0 C2.64 0 5.28 0 8 0 C7.38125 0.28875 6.7625 0.5775 6.125 0.875 C3.86674235 1.93720042 3.86674235 1.93720042 2 4 C1.01 4 0.02 4 -1 4 C-0.67 2.68 -0.34 1.36 0 0 Z " fill="#3D598D" transform="translate(157,214)"/>
<path d="M0 0 C-0.34879632 3.25543229 -1.02133261 4.01873107 -3.5625 6.25 C-4.366875 6.8275 -5.17125 7.405 -6 8 C-5.40138258 5.64828869 -4.73075648 3.3140622 -4 1 C-2 0 -2 0 0 0 Z " fill="#1D4B89" transform="translate(225,206)"/>
<path d="M0 0 C2.97 1.98 2.97 1.98 6 4 C5.34 4.66 4.68 5.32 4 6 C2.68 5.34 1.36 4.68 0 4 C0 2.68 0 1.36 0 0 Z " fill="#385A8E" transform="translate(143,286)"/>
<path d="M0 0 C2.71224618 1.61268692 5.37352812 3.24901874 8 5 C8 5.66 8 6.32 8 7 C5.05043472 5.63055898 2.47531189 4.12169591 0 2 C0 1.34 0 0.68 0 0 Z " fill="#0B3A7D" transform="translate(117,270)"/>
</svg>
