<?xml version="1.0" encoding="UTF-8"?>
<svg version="1.1" xmlns="http://www.w3.org/2000/svg" width="500" height="500">
<path d="M0 0 C1.134375 0.020625 2.26875 0.04125 3.4375 0.0625 C4.01697388 1.10869507 4.01697388 1.10869507 4.6081543 2.17602539 C11.53634605 14.6790946 18.47511995 27.17591123 25.5 39.625 C26.01071045 40.53193604 26.5214209 41.43887207 27.04760742 42.37329102 C30.41524387 48.32869602 33.89058692 54.21217245 37.4375 60.0625 C39.68221461 57.19303208 41.53260931 54.26556879 43.30078125 51.08203125 C44.12666748 49.60053589 44.12666748 49.60053589 44.96923828 48.08911133 C45.55688965 47.02845459 46.14454102 45.96779785 46.75 44.875 C47.36085449 43.77889404 47.97170898 42.68278809 48.60107422 41.5534668 C50.21979731 38.64882478 51.83632206 35.74298392 53.45159912 32.83642578 C56.3173585 27.68008142 59.18857916 22.52680036 62.0625 17.375 C62.93128784 15.80939331 62.93128784 15.80939331 63.81762695 14.2121582 C64.88346442 12.30149358 65.9593928 10.39640405 67.04785156 8.49853516 C67.88797189 7.02581544 68.70474577 5.53894467 69.47558594 4.02880859 C70.3984375 2.35546875 70.3984375 2.35546875 72.4375 0.0625 C74.7475 0.0625 77.0575 0.0625 79.4375 0.0625 C79.4375 33.7225 79.4375 67.3825 79.4375 102.0625 C51.7175 102.0625 23.9975 102.0625 -4.5625 102.0625 C-4.60260881 76.89645041 -4.60260881 76.89645041 -4.61132812 66.20898438 C-4.61731715 58.90258055 -4.62441902 51.5961892 -4.63793945 44.28979492 C-4.64876637 38.40244853 -4.65477642 32.51511551 -4.65737724 26.62775993 C-4.65923185 24.37617723 -4.66285313 22.12459531 -4.66823006 19.87301826 C-4.67543789 16.73116573 -4.67649105 13.58936917 -4.67602539 10.44750977 C-4.67962067 9.50668045 -4.68321594 8.56585114 -4.68692017 7.59651184 C-4.67478452 0.08201376 -4.67478452 0.08201376 0 0 Z M2.4375 14.0625 C2.4375 41.1225 2.4375 68.1825 2.4375 96.0625 C25.5375 96.0625 48.6375 96.0625 72.4375 96.0625 C72.4375 69.0025 72.4375 41.9425 72.4375 14.0625 C70.17479282 17.0794429 68.37651896 19.80932696 66.57421875 23.078125 C66.02338623 24.07126709 65.47255371 25.06440918 64.9050293 26.08764648 C64.31761963 27.15184814 63.73020996 28.2160498 63.125 29.3125 C56.45578194 41.31885801 49.58291814 53.19366497 42.61401367 65.02905273 C41.84892348 66.35140928 41.12072615 67.6960477 40.4375 69.0625 C38.17797852 69.41650391 38.17797852 69.41650391 35.4375 69.0625 C33.46069336 66.68896484 33.46069336 66.68896484 31.58984375 63.3984375 C31.25033188 62.81242767 30.91082001 62.22641785 30.5610199 61.62265015 C29.50021727 59.77964479 28.46722429 57.92301549 27.4375 56.0625 C26.8098877 54.95293945 26.18227539 53.84337891 25.53564453 52.70019531 C23.66895021 49.37404948 21.83167512 46.03304183 20 42.6875 C15.78054424 35.02896408 11.55086072 27.38031237 7.0625 19.875 C6.69970947 19.26414551 6.33691895 18.65329102 5.96313477 18.02392578 C5.15202972 16.68432789 4.30009858 15.36953389 3.4375 14.0625 C3.1075 14.0625 2.7775 14.0625 2.4375 14.0625 Z " fill="#010101" transform="translate(15.5625,204.9375)"/>
<path d="M0 0 C3.4375 0.5 3.4375 0.5 5.375 1.5625 C7.23961545 4.96268111 6.90073953 8.70984336 5.94271851 12.41204834 C5.22068998 14.51708833 4.42917275 16.58105029 3.60546875 18.6484375 C3.30219162 19.43706177 2.99891449 20.22568604 2.68644714 21.03820801 C1.67701451 23.6549023 0.6510662 26.26478813 -0.375 28.875 C-1.09594392 30.73412915 -1.81581005 32.59367656 -2.53466797 34.45361328 C-4.0678302 38.41436619 -5.60805289 42.37227021 -7.15380859 46.328125 C-9.57089328 52.51546908 -11.96875342 58.71014765 -14.36328125 64.90625 C-17.94851285 74.17918596 -21.54529434 83.44757171 -25.14878845 92.71342468 C-27.35798782 98.39559256 -29.56172443 104.07982138 -31.75839233 109.7668457 C-33.05656464 113.12747311 -34.35685379 116.48727929 -35.65740967 119.84698486 C-36.2528495 121.3867604 -36.84731852 122.92691176 -37.44073486 124.46746826 C-38.24948222 126.56659753 -39.0618194 128.66430369 -39.875 130.76171875 C-40.54982422 132.50908325 -40.54982422 132.50908325 -41.23828125 134.29174805 C-44.90289697 143.17019848 -44.90289697 143.17019848 -47.5625 144.5 C-53.74285883 144.94948064 -53.74285883 144.94948064 -56.5 143.4375 C-58.4863956 139.81524921 -58.00019315 136.04878567 -56.91244507 132.19976807 C-55.9519659 129.49515366 -54.91862245 126.83000911 -53.85546875 124.1640625 C-53.46309021 123.15266205 -53.07071167 122.1412616 -52.66644287 121.09921265 C-51.37193538 117.7700775 -50.06102351 114.44766176 -48.75 111.125 C-47.84140341 108.79731417 -46.93394834 106.46918246 -46.02758789 104.140625 C-44.14983787 99.3209531 -42.26584534 94.50379227 -40.37695312 89.68847656 C-37.69591056 82.84907756 -35.0387688 76.00063238 -32.390625 69.1484375 C-28.83451733 59.94732158 -25.26721907 50.75066003 -21.69021606 41.55764771 C-19.74269124 36.54893405 -17.80536362 31.53657453 -15.8848114 26.51745605 C-15.10325996 24.47665787 -14.31814461 22.43727489 -13.53149414 20.3984375 C-12.6330211 18.06780373 -11.74093149 15.73469238 -10.85717773 13.3984375 C-5.9900379 0.84070707 -5.9900379 0.84070707 0 0 Z " fill="#224C89" transform="translate(222.5625,185.5)"/>
<path d="M0 0 C4.28488372 1.55813953 4.28488372 1.55813953 5.75 4 C6.4375 7.25 6.4375 7.25 5.75 11 C3.48965477 13.82373458 0.62690315 15.83386115 -2.25 18 C-3.30431455 18.83050865 -4.35625702 19.66403437 -5.40625 20.5 C-8.38415828 22.86560016 -11.38022433 25.2069252 -14.38134766 27.54296875 C-17.44957537 29.93533653 -20.50518319 32.34371673 -23.5625 34.75 C-28.77843617 38.85041008 -34.00614677 42.93532012 -39.25 47 C-38.16510166 50.25469502 -37.67222349 50.70466657 -35.03125 52.64453125 C-34.01611328 53.4022583 -34.01611328 53.4022583 -32.98046875 54.17529297 C-32.24441406 54.71557129 -31.50835937 55.25584961 -30.75 55.8125 C-23.70648497 61.0816372 -16.863143 66.53717956 -10.1015625 72.16235352 C-5.71832802 75.8048834 -1.28770223 79.35648372 3.28125 82.765625 C5.54927626 84.67173217 5.74118212 85.91887548 6.0625 88.875 C5.75 92 5.75 92 4.1875 94.4375 C1.75 96 1.75 96 -1.47265625 95.92578125 C-6.13054295 94.78418958 -8.56779458 92.84176761 -12.125 89.75 C-13.44497849 88.6477773 -14.76665795 87.5475891 -16.08984375 86.44921875 C-16.77159668 85.87864746 -17.45334961 85.30807617 -18.15576172 84.72021484 C-21.58949936 81.89973042 -25.14013852 79.23757282 -28.6875 76.5625 C-36.43951806 70.67939103 -44.03890894 64.61874191 -51.53125 58.40820312 C-52.6788986 57.46791376 -53.8406574 56.54459269 -55.015625 55.63867188 C-59.18350862 52.37235173 -59.18350862 52.37235173 -59.875 48.5 C-58.74395795 42.16616452 -54.34418361 39.08020174 -49.375 35.375 C-48.20385094 34.49295196 -47.03329746 33.61011268 -45.86328125 32.7265625 C-45.26338379 32.27571289 -44.66348633 31.82486328 -44.04541016 31.36035156 C-41.18762508 29.1950567 -38.37577939 26.97261691 -35.5625 24.75 C-29.98960985 20.36159727 -24.40598365 15.98712725 -18.8125 11.625 C-18.06718018 11.04202148 -17.32186035 10.45904297 -16.55395508 9.85839844 C-14.46084386 8.22789088 -12.35866516 6.61032728 -10.25 5 C-9.59789551 4.49694336 -8.94579102 3.99388672 -8.27392578 3.47558594 C-3.63207682 0 -3.63207682 0 0 0 Z " fill="#214782" transform="translate(164.25,210)"/>
<path d="M0 0 C2.52415334 1.57120956 4.74133384 3.44743004 7 5.375 C8.3262196 6.4720839 9.65305714 7.56842117 10.98046875 8.6640625 C11.64868652 9.22125977 12.3169043 9.77845703 13.00537109 10.35253906 C16.06202112 12.87717485 19.18549845 15.31348177 22.3125 17.75 C27.03946045 21.45063935 31.73452105 25.18772161 36.41015625 28.953125 C38.40322066 30.5283373 40.40836728 32.07641039 42.43359375 33.609375 C43.02454834 34.05788818 43.61550293 34.50640137 44.22436523 34.96850586 C45.38350499 35.84586931 46.5456571 36.71927106 47.71118164 37.58813477 C50.36550691 39.5982024 52.13121637 41.19682455 54 44 C54.4777347 47.66263267 54.43188629 49.37704881 52.3046875 52.4453125 C49.94876355 55.0567943 47.60772326 56.95648839 44.75 59 C39.81321946 62.61432175 35.03852216 66.36486787 30.3125 70.25 C24.59596323 74.93452849 18.81046768 79.51296249 12.9375 84 C12.24760986 84.52754883 11.55771973 85.05509766 10.84692383 85.59863281 C9.53454604 86.59668486 8.21859373 87.5900585 6.89868164 88.578125 C5.61910066 89.53637106 4.34753978 90.50540937 3.08374023 91.484375 C-1.57187061 95 -1.57187061 95 -5.8125 95 C-9 94 -9 94 -11 91 C-11.6875 87.8125 -11.6875 87.8125 -11 84 C-6.04815313 77.80685459 1.47997395 73.34232164 7.83178711 68.64941406 C12.95404691 64.84893107 17.83986075 60.84014774 22.66967773 56.67724609 C26.31237086 53.54665264 30.01973589 50.68436417 34 48 C32.67823645 44.03470934 30.79064953 43.10180493 27.4375 40.625 C26.24711508 39.73388133 25.05838794 38.84054501 23.87109375 37.9453125 C23.24058105 37.4699707 22.61006836 36.99462891 21.96044922 36.50488281 C18.58044757 33.91032115 15.29403756 31.20228 12 28.5 C5.91482998 23.51868907 -0.25671124 18.67636406 -6.5234375 13.92578125 C-10.93587786 10.49465649 -10.93587786 10.49465649 -11.4375 6.625 C-11 3 -11 3 -8.875 0.5 C-5.20220265 -1.41624209 -3.95822486 -1.12956537 0 0 Z " fill="#224C89" transform="translate(236,211)"/>
<path d="M0 0 C2.31 0 4.62 0 7 0 C7 9.57 7 19.14 7 29 C10.63 29 14.26 29 18 29 C38.20361777 32.13362235 54.96471593 43.69272853 66.90625 59.984375 C68.71171577 62.58478465 70.37124612 65.28541019 72 68 C72.33 45.56 72.66 23.12 73 0 C75.31 0 77.62 0 80 0 C80 33.66 80 67.32 80 102 C77.69 102 75.38 102 73 102 C72.90203125 101.05640625 72.8040625 100.1128125 72.703125 99.140625 C70.34732091 78.91320368 62.66491596 62.45375966 46.6875 49.25 C34.6404169 40.42239601 21.5547982 37.07925689 7 35 C7 57.11 7 79.22 7 102 C4.69 102 2.38 102 0 102 C0 68.34 0 34.68 0 0 Z " fill="#000000" transform="translate(302,205)"/>
<path d="M0 0 C2.91014791 -0.28565046 5.15888572 -0.48830736 8 0 C10.09383234 2.0097142 11.22155431 3.40654232 12.6640625 5.82421875 C13.05929108 6.43395035 13.45451965 7.04368195 13.86172485 7.67189026 C15.14304305 9.66131528 16.38350303 11.67303373 17.625 13.6875 C18.49820911 15.05938261 19.37420517 16.42949515 20.25292969 17.79785156 C22.01520067 20.54762298 23.76380598 23.30536131 25.50292969 26.06982422 C29.52780301 32.44141056 33.79899798 38.64714085 38.03759766 44.87768555 C38.56659668 45.66570557 39.0955957 46.45372559 39.640625 47.265625 C40.32946777 48.28317871 40.32946777 48.28317871 41.03222656 49.32128906 C42 51 42 51 42 53 C44.38172849 50.77039954 46.15175416 48.44073183 47.93920898 45.71557617 C48.50667343 44.85425583 49.07413788 43.99293549 49.65879822 43.10551453 C50.26510574 42.17737442 50.87141327 41.24923431 51.49609375 40.29296875 C52.12604752 39.33481766 52.75600128 38.37666656 53.40504456 37.38948059 C55.41922384 34.3243452 57.42844759 31.25599768 59.4375 28.1875 C60.78677752 26.13194359 62.13638314 24.07660251 63.48632812 22.02148438 C65.9700876 18.23987763 68.45161472 14.45682342 70.93139648 10.67260742 C71.46411163 9.8637207 71.99682678 9.05483398 72.54568481 8.22143555 C73.44916843 6.84138352 74.34385627 5.45547878 75.22457886 4.06079102 C77.7750176 0.06158277 77.7750176 0.06158277 80.140625 -0.5859375 C80.83671875 -0.51632813 81.5328125 -0.44671875 82.25 -0.375 C83.4875 -0.25125 84.725 -0.1275 86 0 C82.37397274 6.9085594 78.20274802 13.37485118 73.84176636 19.83938599 C72.65332568 21.61351616 71.48348703 23.39885369 70.31665039 25.18725586 C66.55424524 30.92175498 62.76711496 36.40532638 58.296875 41.625 C43.30835655 59.86653463 44.9468622 79.4273235 46 102 C44.02 102 42.04 102 40 102 C40.06396973 100.86908936 40.12793945 99.73817871 40.19384766 98.57299805 C41.3883043 74.3720923 40.96451583 57.26741438 25.07141113 38.09294128 C19.74910026 31.63789424 15.31626837 24.60056487 10.7947998 17.5737915 C9.39381899 15.40414428 7.97777884 13.24519777 6.55566406 11.08935547 C5.69074801 9.77572088 4.8258388 8.4620818 3.9609375 7.1484375 C3.35755051 6.23499573 3.35755051 6.23499573 2.74197388 5.30310059 C0 1.11356596 0 1.11356596 0 0 Z " fill="#010101" transform="translate(407,205)"/>
<path d="M0 0 C2.0625 0.4375 2.0625 0.4375 4 1 C3.41641785 5.21177126 2.43055174 8.8547657 0.84765625 12.796875 C0.40631348 13.90627441 -0.0350293 15.01567383 -0.48974609 16.15869141 C-0.96750488 17.34382324 -1.44526367 18.52895508 -1.9375 19.75 C-2.69441583 21.64839024 -3.4489968 23.54769827 -4.20349121 25.447052 C-4.71821489 26.74245899 -5.23360084 28.03760302 -5.74963379 29.33248901 C-8.17127075 35.41219451 -10.5321489 41.51451295 -12.875 47.625 C-13.27589844 48.66897949 -13.67679688 49.71295898 -14.08984375 50.78857422 C-16.44358923 56.92394281 -18.78759469 63.06300456 -21.12890625 69.203125 C-22.23148618 72.09385867 -23.3343678 74.98447704 -24.4375 77.875 C-24.71132507 78.59257477 -24.98515015 79.31014954 -25.26727295 80.04946899 C-29.95609219 92.33044233 -34.73347094 104.57427095 -39.5625 116.80078125 C-42.08153001 123.18525464 -44.54602051 129.59028389 -47 136 C-48.65 135.67 -50.3 135.34 -52 135 C-51.26848671 130.44142329 -49.73648746 126.24289936 -48.125 121.9375 C-47.67024292 120.71268921 -47.67024292 120.71268921 -47.20629883 119.46313477 C-43.98908846 110.861989 -40.61446181 102.32257157 -37.24487305 93.78027344 C-34.2787785 86.26076616 -31.33605629 78.73330273 -28.4375 71.1875 C-28.05408447 70.18976563 -27.67066895 69.19203125 -27.27563477 68.1640625 C-24.7461088 61.57205391 -22.227285 54.9759999 -19.71125793 48.37882996 C-18.09156325 44.13298536 -16.47002587 39.88784538 -14.84841919 35.64273071 C-14.03893933 33.52197789 -13.23039199 31.40086888 -12.42282104 29.27938843 C-11.2762791 26.26744165 -10.12669186 23.25667216 -8.9765625 20.24609375 C-8.46454536 18.89744232 -8.46454536 18.89744232 -7.94218445 17.52154541 C-2.00153858 2.00153858 -2.00153858 2.00153858 0 0 Z " fill="#6BAEE2" transform="translate(221,190)"/>
<path d="M0 0 C1.67542976 0.28604898 3.34385343 0.61781233 5 1 C4.728408 4.14474947 3.98498425 5.01341213 1.5859375 7.15625 C-0.00347656 8.31640625 -0.00347656 8.31640625 -1.625 9.5 C-2.81756978 10.38515327 -4.00892879 11.27193961 -5.19921875 12.16015625 C-5.8236084 12.62309082 -6.44799805 13.08602539 -7.09130859 13.56298828 C-10.2630237 15.95090273 -13.34773965 18.44502875 -16.4375 20.9375 C-22.04493598 25.44441116 -27.68158973 29.91163882 -33.34545898 34.34741211 C-35.84800724 36.30757302 -38.33167964 38.27655542 -40.7734375 40.3125 C-43 42 -43 42 -45 42 C-45 42.66 -45 43.32 -45 44 C-44.45859375 44.24105469 -43.9171875 44.48210937 -43.359375 44.73046875 C-40.40427589 46.32054691 -37.90297124 48.25543727 -35.25 50.3125 C-34.68925781 50.74691406 -34.12851563 51.18132812 -33.55078125 51.62890625 C-28.29219495 55.72531046 -23.13124985 59.94022585 -17.97070312 64.15893555 C-10.45409599 70.29028219 -2.76894327 76.19179003 5 82 C4.505 83.98 4.505 83.98 4 86 C-0.86363452 85.54714762 -3.80258106 83.13719966 -7.4375 80.125 C-8.68857416 79.11430114 -9.93988265 78.10389228 -11.19140625 77.09375 C-11.82578613 76.57683594 -12.46016602 76.05992187 -13.11376953 75.52734375 C-15.44390018 73.64055922 -17.80463662 71.79550069 -20.16992188 69.953125 C-26.66028774 64.89762811 -33.05715139 59.73240978 -39.40771484 54.50244141 C-43.49349007 51.15552715 -47.67140936 48.02722081 -52 45 C-51.25367758 41.57814898 -50.52808256 40.20145049 -47.8125 37.9375 C-47.08933594 37.33292969 -46.36617188 36.72835937 -45.62109375 36.10546875 C-40.72835847 32.17523877 -35.79892341 28.29436888 -30.84667969 24.43945312 C-27.89069731 22.13531879 -24.94571005 19.81724213 -22 17.5 C-18.34953607 14.63040891 -14.69772248 11.76256374 -11.04296875 8.8984375 C-10.39779297 8.39248047 -9.75261719 7.88652344 -9.08789062 7.36523438 C-7.84352187 6.38943441 -6.59874557 5.41415388 -5.35351562 4.43945312 C-2.58536226 2.3253654 -2.58536226 2.3253654 0 0 Z " fill="#6BAEE2" transform="translate(161,215)"/>
<path d="M0 0 C5.42779054 0.34445594 8.54739307 3.56216547 12.5 6.9375 C13.93374712 8.13288953 15.36865747 9.32688517 16.8046875 10.51953125 C17.51463867 11.1120166 18.22458984 11.70450195 18.95605469 12.31494141 C21.79529331 14.65565151 24.69931884 16.893 27.625 19.125 C28.66269531 19.91777344 29.70039063 20.71054688 30.76953125 21.52734375 C31.29240723 21.92679199 31.8152832 22.32624023 32.35400391 22.73779297 C40.42925378 28.93017532 48.46869256 35.14697801 56 42 C54.45418481 45.94542364 52.00391939 47.92195312 48.75 50.5625 C48.22132324 50.99377197 47.69264648 51.42504395 47.14794922 51.86938477 C41.42354144 56.51764402 35.61495031 61.06186077 29.79980469 65.59570312 C27.37630305 67.48663929 24.95739792 69.38337895 22.5402832 71.2824707 C21.35817783 72.21019693 20.17444965 73.13585955 18.98901367 74.05932617 C16.30062257 76.15911879 13.66709682 78.28490112 11.07421875 80.50390625 C10.20410156 81.24511719 9.33398438 81.98632812 8.4375 82.75 C7.32181641 83.73226562 7.32181641 83.73226562 6.18359375 84.734375 C4 86 4 86 1.22265625 85.703125 C0.48917969 85.47109375 -0.24429688 85.2390625 -1 85 C-0.44469755 81.46647286 0.56913634 80.17660887 3.4296875 78.08203125 C4.13730225 77.55440186 4.84491699 77.02677246 5.57397461 76.4831543 C6.33331299 75.93183838 7.09265137 75.38052246 7.875 74.8125 C9.43726998 73.64987669 10.99846797 72.48581153 12.55859375 71.3203125 C13.32155762 70.75344727 14.08452148 70.18658203 14.87060547 69.60253906 C18.51268991 66.86158031 22.00804474 63.95665587 25.51953125 61.05078125 C29.63686578 57.64668577 33.81670632 54.32242296 38 51 C38.84304688 50.32195312 39.68609375 49.64390625 40.5546875 48.9453125 C41.36164063 48.30335938 42.16859375 47.66140625 43 47 C43.721875 46.4225 44.44375 45.845 45.1875 45.25 C47 44 47 44 49 44 C49 43.34 49 42.68 49 42 C48.41081787 41.72019287 47.82163574 41.44038574 47.21459961 41.15209961 C45.16569327 40.08619849 43.41473015 38.94377943 41.56640625 37.56640625 C40.92421143 37.08800293 40.2820166 36.60959961 39.62036133 36.11669922 C38.94126709 35.60381348 38.26217285 35.09092773 37.5625 34.5625 C36.85311279 34.02898926 36.14372559 33.49547852 35.4128418 32.94580078 C30.38108619 29.12814019 25.52780749 25.14621254 20.74462891 21.02368164 C13.75409172 15.02010797 6.37596849 9.51871024 -1 4 C-0.67 2.68 -0.34 1.36 0 0 Z " fill="#6CAFE3" transform="translate(230,215)"/>
<path d="M0 0 C0.99 0.33 1.98 0.66 3 1 C2.54625 1.5775 2.0925 2.155 1.625 2.75 C-0.01782865 4.85619925 -0.01782865 4.85619925 -0.828125 6.90234375 C-2.29512296 9.5282701 -4.01900416 10.95353318 -6.375 12.8125 C-7.14585938 13.43769531 -7.91671875 14.06289062 -8.7109375 14.70703125 C-11 16 -11 16 -13.09375 15.546875 C-13.7228125 15.36640625 -14.351875 15.1859375 -15 15 C-17.05279996 16.60118397 -19.05651499 18.26776336 -21 20 C-21.66 20 -22.32 20 -23 20 C-23 20.99 -23 21.98 -23 23 C-23.66 23 -24.32 23 -25 23 C-23.78955868 27.60742865 -23.78955868 27.60742865 -22 32 C-21.01 32.33 -20.02 32.66 -19 33 C-18 34 -17 35 -16 36 C-15.34 36 -14.68 36 -14 36 C-13.34 37.65 -12.68 39.3 -12 41 C-15.49316883 39.44476633 -18.22868761 37.34563239 -21.1875 34.9375 C-22.06792969 34.22464844 -22.94835937 33.51179688 -23.85546875 32.77734375 C-26.98211091 30.18604651 -26.98211091 30.18604651 -27.3125 26.75 C-26.93946876 22.27362518 -25.99559044 21.25306267 -23 18 C-20.98259068 16.3242928 -18.98100027 14.73986103 -16.875 13.1875 C-15.71784614 12.32151895 -14.56160692 11.4543145 -13.40625 10.5859375 C-12.83390625 10.15635742 -12.2615625 9.72677734 -11.671875 9.28417969 C-8.36105819 6.74111654 -5.1951818 4.01415054 -2.0234375 1.30078125 C-1.35570312 0.87152344 -0.68796875 0.44226563 0 0 Z " fill="#25477C" transform="translate(132,232)"/>
<path d="M0 0 C0.33 0.66 0.66 1.32 1 2 C1.66 2.33 2.32 2.66 3 3 C2.36191406 3.45890625 1.72382812 3.9178125 1.06640625 4.390625 C0.24011719 5.00421875 -0.58617188 5.6178125 -1.4375 6.25 C-2.26121094 6.85328125 -3.08492188 7.4565625 -3.93359375 8.078125 C-6.11271704 10.10483324 -6.64701919 11.0991395 -7 14 C-5.83597656 14.89138672 -5.83597656 14.89138672 -4.6484375 15.80078125 C-1.09333661 18.52658093 2.45409148 21.26225791 6 24 C6.65129883 24.50192871 7.30259766 25.00385742 7.97363281 25.52099609 C9.90236902 27.00981996 11.82671699 28.50414101 13.75 30 C14.3579541 30.46833252 14.9659082 30.93666504 15.59228516 31.41918945 C19.88549681 34.77099363 19.88549681 34.77099363 21 37 C17.86198897 36.36391668 15.47850869 35.29242198 12.75 33.625 C12.04359375 33.20476562 11.3371875 32.78453125 10.609375 32.3515625 C10.07828125 31.90554688 9.5471875 31.45953125 9 31 C9 30.01 9 29.02 9 28 C7.63875 27.87625 7.63875 27.87625 6.25 27.75 C2.53386595 26.8924306 1.46704667 25.80732897 -1 23 C-1.99 22.34 -2.98 21.68 -4 21 C-4 20.34 -4 19.68 -4 19 C-4.61875 18.896875 -5.2375 18.79375 -5.875 18.6875 C-8 18 -8 18 -10 15 C-10.125 11.8125 -10.125 11.8125 -10 9 C-9.34 9 -8.68 9 -8 9 C-8 8.01 -8 7.02 -8 6 C-6.25 4.39453125 -6.25 4.39453125 -4 2.8125 C-3.2575 2.28269531 -2.515 1.75289062 -1.75 1.20703125 C-0.88375 0.60955078 -0.88375 0.60955078 0 0 Z " fill="#225192" transform="translate(117,246)"/>
<path d="M0 0 C0.54140625 0.28488281 1.0828125 0.56976563 1.640625 0.86328125 C4.29201996 2.14069173 6.99864177 3.14326689 9.75 4.1875 C15.59482994 6.59795906 19.50408988 9.65428732 24 14 C25.13976916 14.88288464 26.28510482 15.75866036 27.4375 16.625 C30.17993759 19.16677143 30.79024988 20.3293729 31 24 C31.66 24 32.32 24 33 24 C32.505 25.485 32.505 25.485 32 27 C31.13375 26.236875 30.2675 25.47375 29.375 24.6875 C25.75068181 21.57674916 22.01258992 18.62746852 18.25 15.6875 C13.68225968 12.11474333 9.13113638 8.52531978 4.625 4.875 C3.28308594 3.78832031 3.28308594 3.78832031 1.9140625 2.6796875 C1.28242188 2.12539062 0.65078125 1.57109375 0 1 C0 0.67 0 0.34 0 0 Z " fill="#214C89" transform="translate(240,232)"/>
<path d="M0 0 C2.046875 3.71875 2.046875 3.71875 1.625 6.25 C1.41875 6.8275 1.2125 7.405 1 8 C0.01 8 -0.98 8 -2 8 C-2.144375 8.928125 -2.28875 9.85625 -2.4375 10.8125 C-3 14 -3 14 -4 17 C-3.690625 17.99 -3.690625 17.99 -3.375 19 C-3.25125 19.66 -3.1275 20.32 -3 21 C-3.495 21.474375 -3.99 21.94875 -4.5 22.4375 C-4.995 22.953125 -5.49 23.46875 -6 24 C-5.71263151 26.87368492 -4.91403285 29.25790144 -4 32 C-2.02 31.67 -0.04 31.34 2 31 C2.13792969 30.42765625 2.27585938 29.8553125 2.41796875 29.265625 C3.9949617 23.12699474 6.14103992 17.46546592 9.08984375 11.859375 C10.15771104 9.78648338 10.15771104 9.78648338 11.125 6.5625 C12 4 12 4 14 3 C12.24610661 9.64809113 9.936352 16.07752848 7.5 22.5 C7.20343506 23.30163574 6.90687012 24.10327148 6.60131836 24.92919922 C6.3100708 25.68475098 6.01882324 26.44030273 5.71875 27.21875 C5.33106445 28.2387207 5.33106445 28.2387207 4.93554688 29.27929688 C4 31 4 31 1 33 C-5.01987353 33.53748871 -5.01987353 33.53748871 -7.9375 31.9375 C-9.57144558 28.95795218 -9.46632059 26.27853749 -9 23 C-7.73232553 18.92395024 -6.13002426 15.00539652 -4.5 11.0625 C-3.85611328 9.46438477 -3.85611328 9.46438477 -3.19921875 7.83398438 C-2.14348164 5.21810242 -1.07687973 2.60723275 0 0 Z " fill="#1F3C70" transform="translate(174,297)"/>
<path d="M0 0 C1.33097865 3.99293596 -0.02444764 6.35355207 -1.52734375 10.07421875 C-1.79511124 10.7580513 -2.06287872 11.44188385 -2.33876038 12.1464386 C-3.19625079 14.33036217 -4.06667017 16.50886567 -4.9375 18.6875 C-5.52104094 20.16697932 -6.1037339 21.64679341 -6.68554688 23.12695312 C-8.11388616 26.75526028 -9.55384215 30.37876008 -11 34 C-11.66 33.67 -12.32 33.34 -13 33 C-12.690625 32.34 -12.38125 31.68 -12.0625 31 C-10.83447659 27.91634175 -10.83447659 27.91634175 -10.625 24.125 C-10.3121736 21.04308063 -9.6221736 19.01249089 -8 16.375 C-5.84169892 13.20038323 -5.84169892 13.20038323 -5.5 9.9375 C-4.82236388 5.95638779 -2.86246549 2.86246549 0 0 Z " fill="#235190" transform="translate(211,210)"/>
<path d="M0 0 C1.11328125 1.796875 1.11328125 1.796875 2 4 C1.04511333 5.71221059 0.07824249 7.42028094 -0.98046875 9.0703125 C-2.09464397 11.17913457 -2.39767365 12.7625889 -2.625 15.125 C-2.96089683 18.59593391 -3.65015722 20.85036685 -5 24 C-5 24.99 -5 25.98 -5 27 C-5.99 27 -6.98 27 -8 27 C-8 27.66 -8 28.32 -8 29 C-8.66 29 -9.32 29 -10 29 C-9.938125 30.093125 -9.87625 31.18625 -9.8125 32.3125 C-10 36 -10 36 -11.5 37.9375 C-11.995 38.288125 -12.49 38.63875 -13 39 C-14.42434535 34.72696394 -12.64554859 31.82432825 -11.03515625 27.83203125 C-10.72299667 27.03721848 -10.4108371 26.2424057 -10.08921814 25.42350769 C-9.08908074 22.8829399 -8.075984 20.3477692 -7.0625 17.8125 C-6.38260444 16.09213615 -5.70355716 14.37143679 -5.02539062 12.65039062 C-3.36008272 8.42963604 -1.68313325 4.21367623 0 0 Z " fill="#23437A" transform="translate(204,219)"/>
<path d="M0 0 C3.75448769 1.65559337 6.85172992 4.0516292 10.0625 6.5625 C10.62670654 6.99997559 11.19091309 7.43745117 11.7722168 7.88818359 C17.26022282 12.1626955 22.64644437 16.55837268 28 21 C26 22 26 22 23.9375 21.75 C23.298125 21.5025 22.65875 21.255 22 21 C21.67 20.01 21.34 19.02 21 18 C20.34 18.33 19.68 18.66 19 19 C16.375 17.8125 16.375 17.8125 14 16 C14 14.68 14 13.36 14 12 C12.68 11.34 11.36 10.68 10 10 C10 9.34 10 8.68 10 8 C9.443125 7.938125 8.88625 7.87625 8.3125 7.8125 C4.51666774 6.47882921 1.78829587 3.57659173 0 0 Z " fill="#20477D" transform="translate(243,218)"/>
<path d="M0 0 C0.33 1.32 0.66 2.64 1 4 C0.01 3.67 -0.98 3.34 -2 3 C-4.03697617 4.62126675 -6.03814584 6.28859531 -8 8 C-8.66 8 -9.32 8 -10 8 C-10 8.99 -10 9.98 -10 11 C-10.66 11 -11.32 11 -12 11 C-10.78955868 15.60742865 -10.78955868 15.60742865 -9 20 C-8.01 20.33 -7.02 20.66 -6 21 C-5 22 -4 23 -3 24 C-2.34 24 -1.68 24 -1 24 C-0.34 25.65 0.32 27.3 1 29 C-2.49316883 27.44476633 -5.22868761 25.34563239 -8.1875 22.9375 C-9.06792969 22.22464844 -9.94835937 21.51179688 -10.85546875 20.77734375 C-13.98211091 18.18604651 -13.98211091 18.18604651 -14.3125 14.75 C-13.93787416 10.25448992 -13.19810079 9.11814827 -10 6 C-2.77142857 0 -2.77142857 0 0 0 Z " fill="#284372" transform="translate(119,244)"/>
<path d="M0 0 C2.31 0.33 4.62 0.66 7 1 C7 1.66 7 2.32 7 3 C7.78375 3.2475 8.5675 3.495 9.375 3.75 C12 5 12 5 13 7.0625 C13.33 7.701875 13.66 8.34125 14 9 C15.66500443 9.34153937 17.33178677 9.67449498 19 10 C20.8125 12.0625 20.8125 12.0625 22 14 C21.34 14 20.68 14 20 14 C19.67 14.66 19.34 15.32 19 16 C16.39355898 13.89863808 13.79025433 11.7934259 11.1875 9.6875 C10.44951172 9.09259766 9.71152344 8.49769531 8.95117188 7.88476562 C7.88286133 7.01948242 7.88286133 7.01948242 6.79296875 6.13671875 C6.1383667 5.60780029 5.48376465 5.07888184 4.80932617 4.53393555 C3.11343223 3.09616715 1.54606477 1.59627526 0 0 Z " fill="#245292" transform="translate(134,272)"/>
<path d="M0 0 C1.3342296 4.00268881 0.26269878 5.67208215 -1.25 9.5625 C-1.68828125 10.71878906 -2.1265625 11.87507813 -2.578125 13.06640625 C-4 16 -4 16 -7 18 C-7.33 19.175625 -7.66 20.35125 -8 21.5625 C-8.495 23.2640625 -8.495 23.2640625 -9 25 C-9.99 25.33 -10.98 25.66 -12 26 C-11.50528333 21.05283331 -10.66093395 17.2377837 -8 13 C-6.99259766 12.57847656 -6.99259766 12.57847656 -5.96484375 12.1484375 C-3.76155073 11.15349268 -3.76155073 11.15349268 -3.2421875 8.65234375 C-3.12101563 7.75644531 -2.99984375 6.86054688 -2.875 5.9375 C-2.4921875 3.21484375 -2.4921875 3.21484375 -2 1 C-1.34 0.67 -0.68 0.34 0 0 Z " fill="#225490" transform="translate(193,284)"/>
<path d="M0 0 C1.3716766 4.11502981 -0.17679445 6.68305643 -1.74609375 10.51171875 C-2.03605728 11.23994339 -2.32602081 11.96816803 -2.62477112 12.71846008 C-3.55354988 15.04511055 -4.49532322 17.36624705 -5.4375 19.6875 C-6.06922181 21.26332641 -6.70009197 22.83949452 -7.33007812 24.41601562 C-8.87686192 28.28137905 -10.43532074 32.1418478 -12 36 C-12.33 36 -12.66 36 -13 36 C-13.20086443 32.28400809 -13.1519437 31.22791555 -11 28 C-10.7834375 26.576875 -10.7834375 26.576875 -10.5625 25.125 C-9.96469667 21.80387038 -8.8754262 19.77236916 -7 17 C-7.66 17 -8.32 17 -9 17 C-8 15 -8 15 -5 14 C-4.66451233 12.20873548 -4.33167645 10.41697413 -4 8.625 C-3.814375 7.62726563 -3.62875 6.62953125 -3.4375 5.6015625 C-2.94472017 3.11096455 -2.94472017 3.11096455 -3 1 C-2.01 0.67 -1.02 0.34 0 0 Z " fill="#1C3D72" transform="translate(212,235)"/>
<path d="M0 0 C2.97 0.495 2.97 0.495 6 1 C6.33 1.99 6.66 2.98 7 4 C8.72420626 5.16551482 8.72420626 5.16551482 10.8125 6.0625 C11.49957031 6.38347656 12.18664062 6.70445312 12.89453125 7.03515625 C14.29580576 7.67729874 15.70621325 8.29988099 17.125 8.90234375 C20.81753242 11.06401377 22.13853134 15.27706268 24 19 C19.8710029 17.24363556 16.59968132 14.46503188 13.125 11.6875 C12.52558594 11.21376953 11.92617187 10.74003906 11.30859375 10.25195312 C9.53189095 8.84330915 7.76398533 7.42452933 6 6 C5.41186523 5.52643066 4.82373047 5.05286133 4.21777344 4.56494141 C2.79186299 3.40068511 1.39300288 2.20343521 0 1 C0 0.67 0 0.34 0 0 Z " fill="#224378" transform="translate(120,273)"/>
<path d="M0 0 C0.99 0.33 1.98 0.66 3 1 C1.71118756 4.25113908 0.41845238 7.50070441 -0.875 10.75 C-1.23980469 11.67039062 -1.60460937 12.59078125 -1.98046875 13.5390625 C-2.51220703 14.87324219 -2.51220703 14.87324219 -3.0546875 16.234375 C-3.54171143 17.45979004 -3.54171143 17.45979004 -4.03857422 18.70996094 C-4.94094869 20.85934452 -5.93128796 22.92911052 -7 25 C-8.55955444 21.88089111 -7.62673502 19.36157873 -7 16 C-5.9375 13.0625 -5.9375 13.0625 -5 11 C-4.34 11 -3.68 11 -3 11 C-2.67 8.03 -2.34 5.06 -2 2 C-1.34 2 -0.68 2 0 2 C0 1.34 0 0.68 0 0 Z " fill="#255494" transform="translate(196,246)"/>
<path d="M0 0 C2.046875 3.71875 2.046875 3.71875 1.625 6.25 C1.41875 6.8275 1.2125 7.405 1 8 C0.01 8 -0.98 8 -2 8 C-2.144375 8.928125 -2.28875 9.85625 -2.4375 10.8125 C-3 14 -3 14 -4 17 C-3.690625 17.99 -3.690625 17.99 -3.375 19 C-3.25125 19.66 -3.1275 20.32 -3 21 C-3.495 21.474375 -3.99 21.94875 -4.5 22.4375 C-4.995 22.953125 -5.49 23.46875 -6 24 C-5.73904456 26.67479327 -5.1995243 28.60095141 -4 31 C-5.32 30.34 -6.64 29.68 -8 29 C-8.48856317 21.49597512 -6.97390972 16.28452524 -4 9.4375 C-3.6184375 8.52419922 -3.236875 7.61089844 -2.84375 6.66992188 C-1.90984573 4.44022544 -0.96191781 2.21771941 0 0 Z " fill="#254783" transform="translate(174,297)"/>
<path d="M0 0 C0.66 0.33 1.32 0.66 2 1 C1.2059375 1.60328125 0.411875 2.2065625 -0.40625 2.828125 C-1.4271875 3.62734375 -2.448125 4.4265625 -3.5 5.25 C-4.5209375 6.03890625 -5.541875 6.8278125 -6.59375 7.640625 C-7.3878125 8.41921875 -8.181875 9.1978125 -9 10 C-9.21081851 13.89459074 -9.21081851 13.89459074 -8 17 C-8.66 17.99 -9.32 18.98 -10 20 C-8.02 20.33 -6.04 20.66 -4 21 C-4 21.33 -4 21.66 -4 22 C-7.375 21.6875 -7.375 21.6875 -11 21 C-13.58970227 17.11544659 -13.83106986 15.60866015 -13 11 C-9.21974518 6.69887499 -4.57727987 3.40146485 0 0 Z " fill="#224175" transform="translate(238,284)"/>
<path d="M0 0 C2 3 2 3 1.6875 4.6875 C1.460625 5.450625 1.23375 6.21375 1 7 C0.61176248 9.66147036 0.3117283 12.32804312 0 15 C-0.61359375 15.06058594 -1.2271875 15.12117188 -1.859375 15.18359375 C-4.22179047 15.8211165 -4.22179047 15.8211165 -5.265625 18.28515625 C-5.59046875 19.20167969 -5.9153125 20.11820312 -6.25 21.0625 C-6.58515625 21.98160156 -6.9203125 22.90070313 -7.265625 23.84765625 C-7.50796875 24.55792969 -7.7503125 25.26820313 -8 26 C-9.24452234 22.26643298 -8.57603411 21.2638654 -7.12890625 17.67578125 C-6.71962891 16.64775391 -6.31035156 15.61972656 -5.88867188 14.56054688 C-5.45103516 13.48869141 -5.01339844 12.41683594 -4.5625 11.3125 C-4.12873047 10.22904297 -3.69496094 9.14558594 -3.24804688 8.02929688 C-2.17371584 5.34937221 -1.09075147 2.67327405 0 0 Z " fill="#224478" transform="translate(189,258)"/>
<path d="M0 0 C0.33 0.66 0.66 1.32 1 2 C-0.91953854 6.05235914 -3.31556259 8.48379884 -7 11 C-9.3125 11.75 -9.3125 11.75 -11 12 C-11 12.66 -11 13.32 -11 14 C-12.32 13.34 -13.64 12.68 -15 12 C-10.05 8.04 -5.1 4.08 0 0 Z " fill="#245393" transform="translate(139,239)"/>
<path d="M0 0 C0.66 0.33 1.32 0.66 2 1 C-11.44874715 12.70615034 -11.44874715 12.70615034 -19 17 C-18 14 -18 14 -15 12 C-14.566875 10.989375 -14.13375 9.97875 -13.6875 8.9375 C-13.130625 7.968125 -12.57375 6.99875 -12 6 C-9.0625 5.25 -9.0625 5.25 -6 5 C-3.71519747 4.02651373 -3.71519747 4.02651373 -2 3 C-2 2.34 -2 1.68 -2 1 C-1.34 0.67 -0.68 0.34 0 0 Z " fill="#1C3F76" transform="translate(153,232)"/>
<path d="M0 0 C4.1655276 1.77034923 7.48695357 4.58220158 11 7.375 C11.61617187 7.85710937 12.23234375 8.33921875 12.8671875 8.8359375 C16.10862295 11.39569768 19.15179312 13.99514174 22 17 C17.13884258 16.58332936 15.23605579 14.49843869 12 11 C11.34 10.67 10.68 10.34 10 10 C10 9.34 10 8.68 10 8 C7.36 7.67 4.72 7.34 2 7 C1.34 4.69 0.68 2.38 0 0 Z " fill="#204075" transform="translate(131,265)"/>
<path d="M0 0 C1.50539661 0.94983358 3.00420347 1.91011891 4.5 2.875 C5.75296875 3.67550781 5.75296875 3.67550781 7.03125 4.4921875 C7.6809375 4.98976562 8.330625 5.48734375 9 6 C9 6.66 9 7.32 9 8 C7.03125 9.5078125 7.03125 9.5078125 4.5 11.125 C3.6646875 11.66382813 2.829375 12.20265625 1.96875 12.7578125 C1.3190625 13.16773438 0.669375 13.57765625 0 14 C-0.33 13.34 -0.66 12.68 -1 12 C-0.34 12 0.32 12 1 12 C1.2165625 10.824375 1.2165625 10.824375 1.4375 9.625 C2 7 2 7 3 5 C2.34 5 1.68 5 1 5 C0.67 3.35 0.34 1.7 0 0 Z " fill="#245391" transform="translate(270,251)"/>
<path d="M0 0 C1.0625 1.8125 1.0625 1.8125 2 4 C1.67 4.99 1.34 5.98 1 7 C0.34 7 -0.32 7 -1 7 C-1.02578125 7.66386719 -1.0515625 8.32773438 -1.078125 9.01171875 C-1.43781402 14.61142284 -1.88517572 17.88517572 -6 22 C-7.00573778 23.32901064 -8.00795408 24.66073801 -9 26 C-8.37658609 22.4617797 -7.44678155 19.26706972 -6.15234375 15.91796875 C-5.79462891 14.98662109 -5.43691406 14.05527344 -5.06835938 13.09570312 C-4.69517578 12.13599609 -4.32199219 11.17628906 -3.9375 10.1875 C-3.56044922 9.20845703 -3.18339844 8.22941406 -2.79492188 7.22070312 C-1.86684405 4.8123999 -0.93509884 2.40558386 0 0 Z " fill="#214077" transform="translate(214,193)"/>
<path d="M0 0 C1.2375 0.433125 1.2375 0.433125 2.5 0.875 C1.51 1.535 0.52 2.195 -0.5 2.875 C-1.16 2.545 -1.82 2.215 -2.5 1.875 C-4.68762564 3.86716567 -4.68762564 3.86716567 -6.125 6.9375 C-8.67850134 10.09577797 -8.99314655 10.30528413 -12.75 10.75 C-13.9875 10.79125 -15.225 10.8325 -16.5 10.875 C-6.06097561 -0.21646341 -6.06097561 -0.21646341 0 0 Z " fill="#1E427B" transform="translate(164.5,210.125)"/>
<path d="M0 0 C0.66 0 1.32 0 2 0 C1.41347648 4.48993869 0.2356462 8.22543184 -1.5625 12.375 C-2.01753906 13.43460938 -2.47257813 14.49421875 -2.94140625 15.5859375 C-3.29074219 16.38257813 -3.64007813 17.17921875 -4 18 C-5 15 -5 15 -5 12 C-5.33 12.99 -5.66 13.98 -6 15 C-6.66 14.67 -7.32 14.34 -8 14 C-6.75 10.5625 -6.75 10.5625 -5 7 C-2.8125 6.0625 -2.8125 6.0625 -1 6 C-1.020625 5.195625 -1.04125 4.39125 -1.0625 3.5625 C-1 1 -1 1 0 0 Z " fill="#20447D" transform="translate(226,196)"/>
<path d="M0 0 C1.32 0.66 2.64 1.32 4 2 C-1.75 6 -1.75 6 -4 6 C-4 6.99 -4 7.98 -4 9 C-8.625 11.125 -8.625 11.125 -12 10 C-8.04 6.7 -4.08 3.4 0 0 Z " fill="#255190" transform="translate(250,287)"/>
<path d="M0 0 C0.66 0.33 1.32 0.66 2 1 C2 1.99 2 2.98 2 4 C0.35 4.66 -1.3 5.32 -3 6 C-3 6.66 -3 7.32 -3 8 C-5.31 9.32 -7.62 10.64 -10 12 C-10.66 11.34 -11.32 10.68 -12 10 C-10.82630859 9.04287109 -10.82630859 9.04287109 -9.62890625 8.06640625 C-8.61699219 7.24011719 -7.60507813 6.41382813 -6.5625 5.5625 C-5.55316406 4.73878906 -4.54382813 3.91507813 -3.50390625 3.06640625 C-1.70216039 1.58798996 -1.70216039 1.58798996 0 0 Z " fill="#245192" transform="translate(154,227)"/>
<path d="M0 0 C2 3 2 3 1.8125 5.1875 C0.74470692 8.88370682 -0.60244725 12.41497337 -2 16 C-2.66 16 -3.32 16 -4 16 C-4.33 16.66 -4.66 17.32 -5 18 C-6 16 -6 16 -4.78515625 12.3046875 C-4.21866415 10.82514342 -3.64408111 9.34867819 -3.0625 7.875 C-2.77181641 7.12089844 -2.48113281 6.36679688 -2.18164062 5.58984375 C-1.46125002 3.72391398 -0.73149596 1.8616042 0 0 Z " fill="#295696" transform="translate(209,233)"/>
<path d="M0 0 C0.81404297 0.42539063 0.81404297 0.42539063 1.64453125 0.859375 C4.03839732 2.05673245 4.03839732 2.05673245 6.76171875 3.078125 C9.64949846 4.23477909 12.33892942 5.38497526 15 7 C16.1875 10.3125 16.1875 10.3125 16 13 C12.08378085 10.7805705 8.66313662 8.2318151 5.1875 5.375 C4.21167969 4.57835937 3.23585937 3.78171875 2.23046875 2.9609375 C1.49441406 2.31382812 0.75835937 1.66671875 0 1 C0 0.67 0 0.34 0 0 Z " fill="#1F4177" transform="translate(240,232)"/>
<path d="M0 0 C0.99 0.33 1.98 0.66 3 1 C2.71125 1.66 2.4225 2.32 2.125 3 C0.76562701 6.62499465 -0.10624639 10.23346693 -1 14 C-2.32 14.33 -3.64 14.66 -5 15 C-1.92482916 4.44191344 -1.92482916 4.44191344 0 0 Z " fill="#265396" transform="translate(202,251)"/>
<path d="M0 0 C4.69159716 3.38772897 9.0299782 6.78185183 13 11 C7.547001 9.43181728 3.23513217 7.96189783 -1 4 C-0.67 2.68 -0.34 1.36 0 0 Z " fill="#255392" transform="translate(240,227)"/>
<path d="M0 0 C0.66 0.66 1.32 1.32 2 2 C-1.63 4.97 -5.26 7.94 -9 11 C-9.66 9.68 -10.32 8.36 -11 7 C-7.25 4 -7.25 4 -5 4 C-5 3.34 -5 2.68 -5 2 C-3.35 1.34 -1.7 0.68 0 0 Z " fill="#245192" transform="translate(153,219)"/>
<path d="M0 0 C5.24569384 3.36262426 10.11528387 7.13564679 15 11 C14.01 11.495 14.01 11.495 13 12 C10.375 11.0625 10.375 11.0625 8 10 C8 9.34 8 8.68 8 8 C6.35 8 4.7 8 3 8 C1.58622659 5.36095629 0.62759865 2.92879371 0 0 Z " fill="#20417B" transform="translate(153,282)"/>
<path d="M0 0 C1 2 1 2 1.0625 4.75 C2.29607672 9.02639931 4.39365188 10.33681845 7.89453125 12.8984375 C10.19466717 14.3090513 10.19466717 14.3090513 14 14 C14 15.65 14 17.3 14 19 C10.50683117 17.44476633 7.77131239 15.34563239 4.8125 12.9375 C3.93207031 12.22464844 3.05164063 11.51179687 2.14453125 10.77734375 C1.06778168 9.88495567 -0.01112536 8.98887464 -1 8 C-1.125 4.5 -1.125 4.5 -1 1 C-0.67 0.67 -0.34 0.34 0 0 Z " fill="#234074" transform="translate(226,213)"/>
<path d="M0 0 C0.66 0.33 1.32 0.66 2 1 C1.46149601 2.7990245 0.89324145 4.58916264 0.3125 6.375 C-0.00074219 7.37273437 -0.31398437 8.37046875 -0.63671875 9.3984375 C-2 12 -2 12 -7 14 C-5.68 10.7 -4.36 7.4 -3 4 C-2.34 4 -1.68 4 -1 4 C-0.67 2.68 -0.34 1.36 0 0 Z " fill="#23508E" transform="translate(221,207)"/>
<path d="M0 0 C0.99 0.33 1.98 0.66 3 1 C1.68 4.96 0.36 8.92 -1 13 C-2.32 12.34 -3.64 11.68 -5 11 C-3.35 7.37 -1.7 3.74 0 0 Z " fill="#234F8E" transform="translate(185,273)"/>
<path d="M0 0 C8.44646925 6.15034169 8.44646925 6.15034169 12 10 C8.70776216 10 6.91489643 9.49481868 4 8 C2.8125 5.9375 2.8125 5.9375 2 4 C1.34 3.67 0.68 3.34 0 3 C0 2.01 0 1.02 0 0 Z " fill="#235291" transform="translate(139,283)"/>
<path d="M0 0 C0.78375 0.04125 1.5675 0.0825 2.375 0.125 C-1.04566436 5.18163427 -5.53502391 7.96007897 -10.625 11.125 C-10.625 10.135 -10.625 9.145 -10.625 8.125 C-9.820625 7.8775 -9.01625 7.63 -8.1875 7.375 C-6.9190625 6.75625 -6.9190625 6.75625 -5.625 6.125 C-4.88223969 4.15419843 -4.88223969 4.15419843 -4.625 2.125 C-2.625 0.125 -2.625 0.125 0 0 Z " fill="#245494" transform="translate(256.625,272.875)"/>
<path d="M0 0 C1.08784335 3.31395986 1.07262544 3.83580335 -0.4375 7.25 C-0.953125 8.1575 -1.46875 9.065 -2 10 C-4.5 8.625 -4.5 8.625 -7 7 C-7 6.34 -7 5.68 -7 5 C-5.46875 3.7109375 -5.46875 3.7109375 -3.5 2.375 C-2.8503125 1.92898437 -2.200625 1.48296875 -1.53125 1.0234375 C-1.0259375 0.68570313 -0.520625 0.34796875 0 0 Z " fill="#235393" transform="translate(123,252)"/>
<path d="M0 0 C-3.3 2.64 -6.6 5.28 -10 8 C-10.66 7.67 -11.32 7.34 -12 7 C-12.625 4.9375 -12.625 4.9375 -13 3 C-11.21189234 2.30329584 -9.41937948 1.61788811 -7.625 0.9375 C-6.62726563 0.55464844 -5.62953125 0.17179688 -4.6015625 -0.22265625 C-2 -1 -2 -1 0 0 Z " fill="#22508E" transform="translate(131,240)"/>
<path d="M0 0 C0.66 0.33 1.32 0.66 2 1 C-1.96 4.3 -5.92 7.6 -10 11 C-10.66 10.67 -11.32 10.34 -12 10 C-11.67 8.35 -11.34 6.7 -11 5 C-10.236875 5.0825 -9.47375 5.165 -8.6875 5.25 C-5.86943434 5.30563488 -5.86943434 5.30563488 -4.375 3.0625 C-3.92125 2.381875 -3.4675 1.70125 -3 1 C-2.01 0.67 -1.02 0.34 0 0 Z " fill="#1D447B" transform="translate(167,221)"/>
<path d="M0 0 C-3.9700218 4.21814817 -8.30840284 7.61227103 -13 11 C-13.33 10.01 -13.66 9.02 -14 8 C-11.69 6.68 -9.38 5.36 -7 4 C-7 3.01 -7 2.02 -7 1 C-4.53721199 -0.231394 -2.7204945 -0.07159196 0 0 Z " fill="#193E7B" transform="translate(260,285)"/>
<path d="M0 0 C3.80133442 1.67923025 6.97082702 4.11462834 10.25 6.625 C10.80429688 7.04523438 11.35859375 7.46546875 11.9296875 7.8984375 C13.28866663 8.92938719 14.64463835 9.96429911 16 11 C15.01 11.495 15.01 11.495 14 12 C11.875 11.0625 11.875 11.0625 10 10 C10 9.34 10 8.68 10 8 C9.443125 7.938125 8.88625 7.87625 8.3125 7.8125 C4.51666774 6.47882921 1.78829587 3.57659173 0 0 Z " fill="#1E3C73" transform="translate(243,218)"/>
<path d="M0 0 C0.66 0.33 1.32 0.66 2 1 C-0.12014101 5.94699568 -3.41944236 7.69966133 -7.94140625 10.1796875 C-8.62074219 10.45039063 -9.30007812 10.72109375 -10 11 C-10.66 10.67 -11.32 10.34 -12 10 C-8.04 6.7 -4.08 3.4 0 0 Z " fill="#204178" transform="translate(252,273)"/>
<path d="M0 0 C1.09658936 3.28976808 0.79953138 4.71303767 0 8 C-0.66 8 -1.32 8 -2 8 C-1.938125 9.093125 -1.87625 10.18625 -1.8125 11.3125 C-2 15 -2 15 -3.5 16.9375 C-3.995 17.288125 -4.49 17.63875 -5 18 C-6.39214652 13.82356045 -4.70664266 11.16562207 -3.0625 7.3125 C-2.77181641 6.61060547 -2.48113281 5.90871094 -2.18164062 5.18554688 C-1.46289687 3.45349225 -0.73254669 1.72626219 0 0 Z " fill="#1F3D73" transform="translate(196,240)"/>
<path d="M0 0 C1.125 3.75 1.125 3.75 0 6 C-2.31 5.67 -4.62 5.34 -7 5 C-6.67 4.01 -6.34 3.02 -6 2 C-2.9375 0.8125 -2.9375 0.8125 0 0 Z " fill="#22508F" transform="translate(235,299)"/>
<path d="M0 0 C2.64 1.98 5.28 3.96 8 6 C3.23374833 7.19156292 2.12120649 6.3415946 -2 4 C-1.34 2.68 -0.68 1.36 0 0 Z " fill="#23457C" transform="translate(272,240)"/>
<path d="M0 0 C1.33897583 0.95043374 2.67105427 1.91059147 4 2.875 C5.11375 3.67550781 5.11375 3.67550781 6.25 4.4921875 C6.8275 4.98976562 7.405 5.48734375 8 6 C8 6.66 8 7.32 8 8 C4.89347355 7.6641593 3.39585697 7.40950721 1.1875 5.125 C0 3 0 3 0 0 Z " fill="#225393" transform="translate(231,220)"/>
<path d="M0 0 C2 4 2 4 1.625 6.25 C1.41875 6.8275 1.2125 7.405 1 8 C0.01 8 -0.98 8 -2 8 C-2.33 9.65 -2.66 11.3 -3 13 C-3.66 12.67 -4.32 12.34 -5 12 C-3.35 8.04 -1.7 4.08 0 0 Z " fill="#234176" transform="translate(174,297)"/>
<path d="M0 0 C0.33 0.66 0.66 1.32 1 2 C2.65 1.34 4.3 0.68 6 0 C6.66 0.66 7.32 1.32 8 2 C6.3125 3.5625 6.3125 3.5625 4 5 C1.25 4.6875 1.25 4.6875 -1 4 C-0.67 2.68 -0.34 1.36 0 0 Z " fill="#68AADE" transform="translate(230,296)"/>
<path d="M0 0 C0 1.65 0 3.3 0 5 C-1.32 5.33 -2.64 5.66 -4 6 C-4 6.66 -4 7.32 -4 8 C-4.99 7.67 -5.98 7.34 -7 7 C-6.04004484 4.12013451 -3.56234645 0 0 0 Z " fill="#235291" transform="translate(266,275)"/>
<path d="M0 0 C0 0.99 0 1.98 0 3 C-1.98 3.99 -1.98 3.99 -4 5 C-3.67 6.32 -3.34 7.64 -3 9 C-4.98 9 -6.96 9 -9 9 C-6.31941902 5.42589203 -3.57410797 2.68058098 0 0 Z " fill="#214074" transform="translate(263,264)"/>
<path d="M0 0 C1.23593891 3.70781672 0.5678132 4.67510253 -0.9375 8.1875 C-1.31777344 9.08855469 -1.69804687 9.98960937 -2.08984375 10.91796875 C-2.54037109 11.94857422 -2.54037109 11.94857422 -3 13 C-3.33 13 -3.66 13 -4 13 C-2.73303167 3.76923077 -2.73303167 3.76923077 -2 1 C-1.34 0.67 -0.68 0.34 0 0 Z " fill="#1E3D72" transform="translate(193,284)"/>
<path d="M0 0 C1.32 0.99 2.64 1.98 4 3 C3.67 3.66 3.34 4.32 3 5 C1.33678518 5.35015049 -0.33034549 5.68197057 -2 6 C-2.99 6.66 -3.98 7.32 -5 8 C-3.375 2.25 -3.375 2.25 0 0 Z " fill="#245595" transform="translate(162,211)"/>
<path d="M0 0 C0.556875 0.144375 1.11375 0.28875 1.6875 0.4375 C4.04945411 1.04352665 4.04945411 1.04352665 6.6875 1.4375 C7.450625 1.623125 8.21375 1.80875 9 2 C9.33 2.66 9.66 3.32 10 4 C8.68 4 7.36 4 6 4 C6 4.66 6 5.32 6 6 C3.5625 5.25 3.5625 5.25 1 4 C0.1875 1.875 0.1875 1.875 0 0 Z " fill="#275795" transform="translate(156,298)"/>
<path d="M0 0 C0.99 0.33 1.98 0.66 3 1 C2.01 3.97 1.02 6.94 0 10 C-0.66 9.67 -1.32 9.34 -2 9 C-1.51421457 5.87709365 -1.0013988 3.00419641 0 0 Z " fill="#24508F" transform="translate(213,200)"/>
<path d="M0 0 C2.16874252 0.50603992 3.99967627 0.99983813 6 2 C6.33 1.34 6.66 0.68 7 0 C7.33 1.65 7.66 3.3 8 5 C8.66 5 9.32 5 10 5 C9.67 5.99 9.34 6.98 9 8 C7.87411986 7.04270084 6.7493285 6.08412105 5.625 5.125 C4.99851562 4.59132812 4.37203125 4.05765625 3.7265625 3.5078125 C2.44163349 2.38567993 1.20628025 1.20628025 0 0 Z " fill="#214173" transform="translate(263,251)"/>
<path d="M0 0 C2.88575819 0.39803561 3.82189513 0.79009069 5.75 3.0625 C6.1625 3.701875 6.575 4.34125 7 5 C6.34 5.66 5.68 6.32 5 7 C3.02 5.35 1.04 3.7 -1 2 C-0.67 1.34 -0.34 0.68 0 0 Z " fill="#255494" transform="translate(158,289)"/>
<path d="M0 0 C0.66 0.66 1.32 1.32 2 2 C1.625 4.625 1.625 4.625 1 7 C0.34 7 -0.32 7 -1 7 C-1.33 7.66 -1.66 8.32 -2 9 C-2.33 8.34 -2.66 7.68 -3 7 C-2.06421005 4.64018187 -1.06652192 2.30368736 0 0 Z " fill="#22528F" transform="translate(206,242)"/>
<path d="M0 0 C0.33 1.32 0.66 2.64 1 4 C-0.8125 5.5625 -0.8125 5.5625 -3 7 C-3.99 6.67 -4.98 6.34 -6 6 C-4 4 -2 2 0 0 Z " fill="#245492" transform="translate(163,220)"/>
<path d="M0 0 C1.67542976 0.28604898 3.34385343 0.61781233 5 1 C4.67 1.99 4.34 2.98 4 4 C2.02 4.33 0.04 4.66 -2 5 C-1.125 1.125 -1.125 1.125 0 0 Z " fill="#255294" transform="translate(231,211)"/>
<path d="M0 0 C2.64 1.98 5.28 3.96 8 6 C7.67 6.66 7.34 7.32 7 8 C4.0625 6.8125 4.0625 6.8125 1 5 C0.125 2.3125 0.125 2.3125 0 0 Z " fill="#244277" transform="translate(281,247)"/>
<path d="M0 0 C0.66 0 1.32 0 2 0 C1.67 1.65 1.34 3.3 1 5 C-0.32 5.33 -1.64 5.66 -3 6 C-2.42655063 3.13275314 -2.1385485 2.1385485 0 0 Z " fill="#24518F" transform="translate(270,271)"/>
<path d="M0 0 C0.66 0.33 1.32 0.66 2 1 C1.67 3.31 1.34 5.62 1 8 C-0.32 8.33 -1.64 8.66 -3 9 C-2.01 6.03 -1.02 3.06 0 0 Z " fill="#255496" transform="translate(224,194)"/>
<path d="M0 0 C1.32 0.66 2.64 1.32 4 2 C2.02 3.32 0.04 4.64 -2 6 C-2.33 4.68 -2.66 3.36 -3 2 C-2.01 1.34 -1.02 0.68 0 0 Z " fill="#275494" transform="translate(262,267)"/>
<path d="M0 0 C0.99 0.33 1.98 0.66 3 1 C1.47298956 4.05402088 -0.95157912 4.65869481 -4 6 C-4.99 6 -5.98 6 -7 6 C-5.90716423 4.96704564 -4.80029421 3.94892165 -3.6875 2.9375 C-3.07261719 2.36902344 -2.45773438 1.80054688 -1.82421875 1.21484375 C-0.92123047 0.61349609 -0.92123047 0.61349609 0 0 Z " fill="#203C74" transform="translate(132,232)"/>
<path d="M0 0 C0.66 0 1.32 0 2 0 C2 1.65 2 3.3 2 5 C1.01 5.33 0.02 5.66 -1 6 C-1.625 4.125 -1.625 4.125 -2 2 C-1.34 1.34 -0.68 0.68 0 0 Z " fill="#224587" transform="translate(187,295)"/>
<path d="M0 0 C1.32 0.33 2.64 0.66 4 1 C3.67 1.99 3.34 2.98 3 4 C1.35 3.67 -0.3 3.34 -2 3 C-1.34 2.01 -0.68 1.02 0 0 Z " fill="#6DB1EA" transform="translate(274,263)"/>
<path d="M0 0 C0.66 0.33 1.32 0.66 2 1 C-1.465 3.97 -1.465 3.97 -5 7 C-5.66 6.67 -6.32 6.34 -7 6 C-3.375 1.125 -3.375 1.125 0 0 Z " fill="#1F3A6E" transform="translate(167,221)"/>
<path d="M0 0 C0.99 0.33 1.98 0.66 3 1 C2.67 2.65 2.34 4.3 2 6 C0.68 6.33 -0.64 6.66 -2 7 C-1.34 4.69 -0.68 2.38 0 0 Z " fill="#26599A" transform="translate(176,318)"/>
</svg>
